<svg width="889" height="526" viewBox="0 0 889 526" fill="none" xmlns="http://www.w3.org/2000/svg">
    <g clip-path="url(#clip0_135_296)">
        <path
            d="M443.48 511.526C561.772 511.526 657.667 506.611 657.667 500.547C657.667 494.484 561.772 489.569 443.48 489.569C325.188 489.569 229.293 494.484 229.293 500.547C229.293 506.611 325.188 511.526 443.48 511.526Z"
            fill="#F2F2F2" />
        <path
            d="M554.751 162.494H552.317V95.6782C552.318 85.4221 548.253 75.586 541.018 68.3338C533.783 61.0816 523.97 57.0073 513.738 57.0073H372.517C362.285 57.0073 352.472 61.0815 345.237 68.3337C338.002 75.5859 333.938 85.422 333.938 95.6781V462.232C333.937 472.488 338.002 482.324 345.237 489.577C352.472 496.829 362.285 500.903 372.517 500.903H513.738C523.97 500.903 533.783 496.829 541.018 489.577C548.253 482.325 552.317 472.488 552.317 462.232V210.054H554.751L554.751 162.494Z"
            fill="#3F3D56" />
        <path
            d="M544.105 95.9479V461.963C544.105 469.622 541.07 476.968 535.666 482.384C530.263 487.8 522.935 490.843 515.294 490.843H373.395C365.753 490.843 358.425 487.8 353.022 482.384C347.618 476.968 344.583 469.622 344.583 461.963V95.9479C344.583 88.2885 347.618 80.9427 353.022 75.5266C358.425 70.1106 365.753 67.0678 373.395 67.0676H390.609C389.763 69.1511 389.441 71.4111 389.671 73.6487C389.901 75.8863 390.676 78.0329 391.927 79.8998C393.179 81.7667 394.87 83.2966 396.85 84.355C398.83 85.4134 401.039 85.9678 403.283 85.9694H484.188C486.432 85.9678 488.641 85.4134 490.621 84.355C492.601 83.2966 494.292 81.7667 495.544 79.8998C496.796 78.0329 497.571 75.8862 497.801 73.6487C498.03 71.4111 497.708 69.1511 496.863 67.0676H515.294C522.935 67.0678 530.263 70.1106 535.666 75.5266C541.07 80.9427 544.105 88.2885 544.105 95.9479Z"
            fill="white" />
        <path
            d="M498.392 253.772C497.449 254.266 496.49 254.734 495.514 255.175C494.626 255.577 493.723 255.956 492.806 256.309C492.472 256.437 492.131 256.566 491.79 256.694C489.096 257.673 486.329 258.438 483.515 258.981C482.121 259.255 480.71 259.471 479.28 259.627C478.099 259.762 476.907 259.857 475.702 259.914C474.844 259.957 473.986 259.975 473.122 259.975C469.7 259.976 466.286 259.656 462.924 259.017C462.047 258.859 461.19 258.67 460.331 258.462C456.181 257.465 452.164 255.979 448.363 254.034C448.022 253.864 447.681 253.681 447.34 253.504C446.835 253.235 446.343 252.955 445.85 252.662C446.087 252.333 446.343 252.009 446.604 251.692C449.451 248.155 453.01 245.259 457.049 243.193C461.087 241.127 465.515 239.938 470.043 239.702C474.571 239.466 479.097 240.189 483.328 241.824C487.558 243.459 491.398 245.969 494.595 249.191C495.705 250.308 496.734 251.502 497.674 252.766C497.924 253.095 498.161 253.43 498.392 253.772Z"
            fill="#2DB487" />
        <path
            d="M474.337 226.979C489.093 226.979 501.055 214.989 501.055 200.197C501.055 185.406 489.093 173.415 474.337 173.415C459.581 173.415 447.618 185.406 447.618 200.197C447.618 214.989 459.581 226.979 474.337 226.979Z"
            fill="#2F2E41" />
        <path
            d="M481.443 227.017C491.079 221.737 494.621 209.625 489.353 199.966C484.085 190.306 472.002 186.756 462.366 192.036C452.729 197.317 449.187 209.428 454.455 219.088C459.723 228.748 471.806 232.298 481.443 227.017Z"
            fill="#A0616A" />
        <path
            d="M492.8 196.989C488.256 200.128 482.862 201.799 477.343 201.777C479.312 203.146 481.553 204.07 483.912 204.486C476.575 206.064 468.991 206.107 461.636 204.612C460.001 204.349 458.423 203.806 456.972 203.006C456.249 202.601 455.619 202.049 455.123 201.384C454.627 200.719 454.277 199.957 454.094 199.147C453.605 196.349 455.781 193.806 458.042 192.092C461.503 189.509 465.495 187.729 469.727 186.881C473.959 186.033 478.326 186.139 482.513 187.191C485.247 187.899 487.985 189.096 489.761 191.296C491.536 193.497 492.062 196.889 490.37 199.155L492.8 196.989Z"
            fill="#2F2E41" />
        <path
            d="M473.122 150.187C461.179 150.185 449.563 154.098 440.044 161.328C430.525 168.559 423.625 178.711 420.397 190.237C417.169 201.763 417.788 214.031 422.162 225.171C426.535 236.311 434.422 245.713 444.621 251.942L444.974 252.15C445.266 252.327 445.558 252.497 445.85 252.662C446.343 252.955 446.836 253.235 447.341 253.504C447.682 253.681 448.022 253.864 448.363 254.034C452.164 255.979 456.182 257.466 460.332 258.463C461.19 258.67 462.048 258.859 462.924 259.018C466.286 259.656 469.701 259.977 473.122 259.975C473.986 259.975 474.844 259.957 475.703 259.914C476.907 259.859 478.1 259.764 479.28 259.628C480.71 259.469 482.122 259.253 483.515 258.981C486.33 258.438 489.097 257.673 491.791 256.694C492.132 256.566 492.472 256.438 492.807 256.309C493.726 255.956 494.628 255.578 495.515 255.175C496.488 254.736 497.448 254.268 498.393 253.772C507.866 248.8 515.695 241.178 520.931 231.833C520.955 231.784 520.986 231.735 521.01 231.686C523.804 226.662 525.786 221.225 526.882 215.578C528.422 207.629 528.188 199.437 526.199 191.589C524.211 183.741 520.515 176.431 515.378 170.182C510.24 163.933 503.788 158.9 496.483 155.443C489.178 151.987 481.201 150.192 473.122 150.187ZM520.012 230.973C519.964 231.058 519.921 231.144 519.872 231.223C514.741 240.43 507.021 247.922 497.675 252.766C496.744 253.254 495.797 253.711 494.833 254.138C494.036 254.498 493.221 254.84 492.399 255.157C492.052 255.291 491.7 255.425 491.347 255.547C489.019 256.399 486.634 257.084 484.209 257.596C482.41 257.98 480.592 258.267 478.763 258.456C477.637 258.578 476.493 258.664 475.343 258.707C474.607 258.737 473.865 258.755 473.122 258.755C469.811 258.759 466.507 258.451 463.253 257.834C461.273 257.468 459.317 256.988 457.393 256.395C454.462 255.487 451.614 254.33 448.88 252.937C448.564 252.772 448.248 252.607 447.937 252.436C447.493 252.199 447.043 251.955 446.604 251.692C446.276 251.509 445.947 251.314 445.625 251.119C445.436 251.009 445.248 250.893 445.059 250.777C436.117 245.273 428.984 237.258 424.545 227.727C420.106 218.196 418.556 207.568 420.088 197.163C421.62 186.757 426.166 177.031 433.162 169.191C440.158 161.352 449.296 155.743 459.443 153.062C469.59 150.381 480.299 150.745 490.241 154.109C500.184 157.473 508.922 163.689 515.372 171.986C521.822 180.283 525.7 190.296 526.525 200.781C527.35 211.267 525.085 221.765 520.012 230.973Z"
            fill="#3F3D56" />
        <path
            d="M460.806 173.785C460.519 170.755 456.816 168.889 453.92 169.805C451.024 170.72 449.122 173.643 448.548 176.632C448.271 177.891 448.245 179.192 448.471 180.46C448.697 181.729 449.171 182.941 449.865 184.026C451.329 186.137 454.019 187.455 456.528 186.919C459.392 186.307 461.376 183.504 461.944 180.624C462.512 177.744 461.948 174.775 461.385 171.894L460.806 173.785Z"
            fill="#2F2E41" />
        <path
            d="M501.564 178.114C501.276 175.084 497.573 173.218 494.677 174.134C491.781 175.049 489.88 177.972 489.305 180.961C489.028 182.219 489.002 183.52 489.228 184.789C489.454 186.058 489.928 187.27 490.622 188.354C492.086 190.466 494.776 191.784 497.285 191.248C500.15 190.636 502.134 187.833 502.702 184.953C503.269 182.073 502.706 179.104 502.143 176.223L501.564 178.114Z"
            fill="#2F2E41" />
        <path
            d="M378.464 227.019C378.085 227.019 377.71 226.939 377.364 226.786C377.017 226.632 376.707 226.407 376.452 226.126L346.258 193.109C345.915 192.735 345.499 192.436 345.035 192.232C344.572 192.027 344.071 191.921 343.564 191.921H184.007C181.586 191.918 179.264 190.953 177.552 189.237C175.84 187.52 174.877 185.193 174.874 182.766V125.089C174.877 122.662 175.84 120.335 177.552 118.619C179.264 116.903 181.586 115.938 184.007 115.935H390.725C393.147 115.938 395.468 116.903 397.18 118.619C398.892 120.335 399.856 122.662 399.858 125.089V182.766C399.856 185.193 398.892 187.52 397.18 189.237C395.468 190.953 393.147 191.918 390.725 191.921H384.865C383.896 191.922 382.967 192.308 382.282 192.995C381.597 193.682 381.212 194.612 381.211 195.583V224.271C381.213 224.824 381.048 225.366 380.736 225.823C380.424 226.28 379.98 226.631 379.465 226.83C379.146 226.955 378.806 227.019 378.464 227.019Z"
            fill="white" />
        <path
            d="M378.464 227.019C378.085 227.019 377.71 226.939 377.364 226.786C377.017 226.632 376.707 226.407 376.452 226.126L346.258 193.109C345.915 192.735 345.499 192.436 345.035 192.232C344.572 192.027 344.071 191.921 343.564 191.921H184.007C181.586 191.918 179.264 190.953 177.552 189.237C175.84 187.52 174.877 185.193 174.874 182.766V125.089C174.877 122.662 175.84 120.335 177.552 118.619C179.264 116.903 181.586 115.938 184.007 115.935H390.725C393.147 115.938 395.468 116.903 397.18 118.619C398.892 120.335 399.856 122.662 399.858 125.089V182.766C399.856 185.193 398.892 187.52 397.18 189.237C395.468 190.953 393.147 191.918 390.725 191.921H384.865C383.896 191.922 382.967 192.308 382.282 192.995C381.597 193.682 381.212 194.612 381.211 195.583V224.271C381.213 224.824 381.048 225.366 380.736 225.823C380.424 226.28 379.98 226.631 379.465 226.83C379.146 226.955 378.806 227.019 378.464 227.019ZM184.007 117.155C181.908 117.157 179.896 117.994 178.412 119.481C176.928 120.969 176.094 122.986 176.091 125.089V182.766C176.094 184.87 176.928 186.887 178.412 188.374C179.896 189.862 181.908 190.699 184.007 190.701H343.564C344.239 190.702 344.907 190.843 345.525 191.115C346.143 191.388 346.698 191.786 347.155 192.284L377.349 225.302C377.556 225.529 377.827 225.687 378.126 225.757C378.425 225.827 378.737 225.804 379.023 225.693C379.309 225.581 379.555 225.386 379.728 225.132C379.901 224.878 379.994 224.578 379.994 224.271V195.583C379.995 194.289 380.509 193.048 381.422 192.133C382.335 191.217 383.573 190.702 384.865 190.701H390.725C392.824 190.699 394.836 189.862 396.32 188.374C397.804 186.887 398.639 184.87 398.641 182.766V125.089C398.639 122.986 397.804 120.969 396.32 119.481C394.836 117.994 392.824 117.157 390.725 117.155H184.007Z"
            fill="#3F3D56" />
        <path
            d="M197.276 141.378C201.69 141.378 205.268 137.791 205.268 133.367C205.268 128.943 201.69 125.356 197.276 125.356C192.863 125.356 189.285 128.943 189.285 133.367C189.285 137.791 192.863 141.378 197.276 141.378Z"
            fill="#2DB487" />
        <path
            d="M381.402 177.693H193.331C192.771 177.694 192.216 177.584 191.698 177.369C191.18 177.155 190.71 176.84 190.314 176.443C189.917 176.047 189.603 175.575 189.388 175.057C189.174 174.538 189.063 173.982 189.063 173.421C189.063 172.859 189.174 172.303 189.388 171.784C189.603 171.266 189.917 170.795 190.314 170.398C190.71 170.001 191.18 169.686 191.698 169.472C192.216 169.258 192.771 169.148 193.331 169.148H381.402C382.531 169.15 383.614 169.6 384.412 170.401C385.21 171.202 385.659 172.288 385.659 173.421C385.659 174.553 385.21 175.639 384.412 176.44C383.614 177.241 382.531 177.692 381.402 177.693Z"
            fill="#E6E6E6" />
        <path
            d="M320.132 159.535H193.331C192.771 159.536 192.216 159.426 191.698 159.211C191.18 158.997 190.71 158.682 190.314 158.285C189.917 157.889 189.603 157.417 189.388 156.899C189.174 156.38 189.063 155.824 189.063 155.263C189.063 154.701 189.174 154.145 189.388 153.626C189.603 153.108 189.917 152.637 190.314 152.24C190.71 151.843 191.18 151.528 191.698 151.314C192.216 151.1 192.771 150.99 193.331 150.99H320.132C321.263 150.99 322.347 151.44 323.146 152.242C323.945 153.043 324.394 154.13 324.394 155.263C324.394 156.396 323.945 157.482 323.146 158.284C322.347 159.085 321.263 159.535 320.132 159.535Z"
            fill="#E6E6E6" />
        <path
            d="M512.624 422.618C512.109 422.419 511.665 422.068 511.353 421.611C511.041 421.154 510.876 420.613 510.878 420.059V391.372C510.877 390.401 510.492 389.47 509.807 388.783C509.122 388.097 508.193 387.71 507.224 387.709H501.364C498.942 387.706 496.621 386.741 494.909 385.025C493.196 383.309 492.233 380.982 492.231 378.555V320.878C492.233 318.451 493.196 316.124 494.909 314.407C496.621 312.691 498.942 311.726 501.364 311.723H708.082C710.503 311.726 712.825 312.691 714.537 314.407C716.249 316.124 717.212 318.451 717.215 320.878V378.555C717.212 380.982 716.249 383.309 714.537 385.025C712.825 386.741 710.503 387.706 708.082 387.709H548.525C548.018 387.71 547.517 387.816 547.054 388.02C546.59 388.225 546.174 388.523 545.831 388.897L515.637 421.915C515.382 422.196 515.072 422.42 514.725 422.574C514.379 422.728 514.004 422.807 513.625 422.808C513.283 422.807 512.943 422.743 512.624 422.618Z"
            fill="white" />
        <path
            d="M512.624 422.618C512.109 422.419 511.665 422.068 511.353 421.611C511.041 421.154 510.876 420.613 510.878 420.059V391.372C510.877 390.401 510.492 389.47 509.807 388.783C509.122 388.097 508.193 387.71 507.224 387.709H501.364C498.942 387.706 496.621 386.741 494.909 385.025C493.196 383.309 492.233 380.982 492.231 378.555V320.878C492.233 318.451 493.196 316.124 494.909 314.407C496.621 312.691 498.942 311.726 501.364 311.723H708.082C710.503 311.726 712.825 312.691 714.537 314.407C716.249 316.124 717.212 318.451 717.215 320.878V378.555C717.212 380.982 716.249 383.309 714.537 385.025C712.825 386.741 710.503 387.706 708.082 387.709H548.525C548.018 387.71 547.517 387.816 547.054 388.02C546.59 388.225 546.174 388.523 545.831 388.897L515.637 421.915C515.382 422.196 515.072 422.42 514.725 422.574C514.379 422.728 514.004 422.807 513.625 422.808C513.283 422.807 512.943 422.743 512.624 422.618ZM501.364 312.943C499.265 312.945 497.253 313.782 495.769 315.27C494.285 316.757 493.45 318.774 493.448 320.878V378.555C493.45 380.658 494.285 382.675 495.769 384.163C497.253 385.65 499.265 386.487 501.364 386.489H507.224C508.516 386.491 509.754 387.006 510.667 387.921C511.58 388.836 512.093 390.077 512.095 391.372V420.059C512.095 420.366 512.188 420.667 512.361 420.921C512.534 421.174 512.78 421.37 513.066 421.481C513.352 421.593 513.664 421.615 513.963 421.545C514.262 421.476 514.533 421.317 514.74 421.09L544.934 388.073C545.391 387.574 545.946 387.176 546.564 386.904C547.182 386.631 547.85 386.49 548.525 386.489H708.082C710.18 386.487 712.193 385.65 713.677 384.163C715.161 382.675 715.995 380.658 715.998 378.555V320.878C715.995 318.774 715.161 316.757 713.677 315.27C712.193 313.782 710.18 312.945 708.082 312.943H501.364Z"
            fill="#3F3D56" />
        <path
            d="M448.192 440.479C439.715 445.92 429.894 448.887 419.829 449.047C409.764 449.208 399.853 446.555 391.208 441.387C392.728 438.55 394.656 435.95 396.928 433.672C400.433 430.141 404.699 427.463 409.399 425.843C414.098 424.223 419.105 423.704 424.036 424.327C428.966 424.949 433.689 426.697 437.841 429.434C441.992 432.172 445.463 435.827 447.985 440.119C448.052 440.235 448.125 440.357 448.192 440.479Z"
            fill="#2DB487" />
        <path
            d="M417.321 411.311C432.175 411.311 444.217 399.241 444.217 384.351C444.217 369.462 432.175 357.391 417.321 357.391C402.467 357.391 390.425 369.462 390.425 384.351C390.425 399.241 402.467 411.311 417.321 411.311Z"
            fill="#2F2E41" />
        <path
            d="M437.334 403.367C442.637 393.644 439.072 381.452 429.371 376.136C419.67 370.821 407.507 374.394 402.204 384.118C396.901 393.842 400.466 406.034 410.167 411.35C419.868 416.665 432.031 413.091 437.334 403.367Z"
            fill="#FFB8B8" />
        <path
            d="M398.735 381.122C403.31 384.282 408.739 385.964 414.295 385.942C412.313 387.319 410.057 388.25 407.682 388.669C415.068 390.257 422.703 390.3 430.107 388.795C431.752 388.531 433.34 387.984 434.801 387.179C435.529 386.772 436.163 386.215 436.662 385.546C437.161 384.877 437.514 384.11 437.699 383.295C438.191 380.477 436 377.918 433.724 376.193C430.24 373.592 426.222 371.8 421.962 370.946C417.701 370.093 413.305 370.2 409.091 371.258C406.339 371.971 403.582 373.176 401.795 375.391C400.007 377.606 399.478 381.021 401.181 383.302L398.735 381.122Z"
            fill="#2F2E41" />
        <path
            d="M418.967 449.664C405.795 449.66 393.066 444.895 383.114 436.245C373.163 427.594 366.657 415.637 364.79 402.566C362.923 389.496 365.819 376.189 372.948 365.087C380.077 353.984 390.961 345.83 403.603 342.121C416.244 338.411 429.797 339.395 441.773 344.891C453.75 350.387 463.348 360.027 468.808 372.044C474.267 384.06 475.221 397.646 471.495 410.31C467.769 422.975 459.612 433.868 448.522 440.992C439.702 446.66 429.444 449.67 418.967 449.664ZM418.967 341.096C408.375 341.095 398.021 344.242 389.213 350.14C380.406 356.038 373.541 364.422 369.487 374.231C365.434 384.039 364.373 394.833 366.439 405.246C368.505 415.659 373.605 425.225 381.095 432.732C388.585 440.24 398.127 445.352 408.516 447.423C418.904 449.494 429.672 448.431 439.458 444.367C449.243 440.304 457.607 433.423 463.491 424.595C469.375 415.766 472.515 405.387 472.514 394.77C472.498 380.54 466.851 366.897 456.813 356.835C446.774 346.772 433.163 341.112 418.967 341.096Z"
            fill="#3F3D56" />
        <path
            d="M517.948 336.556C522.362 336.556 525.94 332.97 525.94 328.546C525.94 324.121 522.362 320.535 517.948 320.535C513.535 320.535 509.957 324.121 509.957 328.546C509.957 332.97 513.535 336.556 517.948 336.556Z"
            fill="#2DB487" />
        <path
            d="M702.074 372.871H514.003C513.443 372.872 512.888 372.762 512.37 372.547C511.853 372.333 511.382 372.018 510.986 371.622C510.589 371.225 510.275 370.754 510.061 370.235C509.846 369.716 509.736 369.16 509.736 368.599C509.736 368.037 509.846 367.481 510.061 366.963C510.275 366.444 510.589 365.973 510.986 365.576C511.382 365.179 511.853 364.865 512.37 364.65C512.888 364.436 513.443 364.326 514.003 364.326H702.074C703.204 364.326 704.288 364.777 705.088 365.578C705.887 366.379 706.336 367.466 706.336 368.599C706.336 369.732 705.887 370.819 705.088 371.62C704.288 372.421 703.204 372.871 702.074 372.871Z"
            fill="#E6E6E6" />
        <path
            d="M640.804 354.714H514.003C513.443 354.714 512.888 354.604 512.37 354.39C511.853 354.176 511.382 353.861 510.986 353.464C510.589 353.067 510.275 352.596 510.061 352.077C509.846 351.559 509.736 351.003 509.736 350.441C509.736 349.88 509.846 349.324 510.061 348.805C510.275 348.286 510.589 347.815 510.986 347.418C511.382 347.022 511.853 346.707 512.37 346.493C512.888 346.278 513.443 346.168 514.003 346.169H640.804C641.934 346.17 643.017 346.621 643.815 347.422C644.613 348.223 645.061 349.309 645.061 350.441C645.061 351.574 644.613 352.659 643.815 353.461C643.017 354.262 641.934 354.712 640.804 354.714Z"
            fill="#E6E6E6" />
        <path
            d="M512.367 428.079C520.602 428.079 527.278 427.336 527.278 426.42C527.278 425.504 520.602 424.761 512.367 424.761C504.133 424.761 497.457 425.504 497.457 426.42C497.457 427.336 504.133 428.079 512.367 428.079Z"
            fill="#F2F2F2" />
        <path
            d="M379.109 232.9C387.344 232.9 394.019 232.158 394.019 231.242C394.019 230.325 387.344 229.583 379.109 229.583C370.874 229.583 364.199 230.325 364.199 231.242C364.199 232.158 370.874 232.9 379.109 232.9Z"
            fill="#F2F2F2" />
    </g>
    <circle cx="795.022" cy="84.7407" r="49.3037" fill="#5DD5AD" />
    <circle cx="75.4965" cy="459.141" r="30.8148" fill="#5DD5AD" />
    <defs>
        <clipPath id="clip0_135_296">
            <rect width="542.341" height="454.519" fill="white"
                transform="translate(174.874 57.0073)" />
        </clipPath>
    </defs>
</svg>