<svg width="450" height="504" viewBox="0 0 450 504" fill="none" xmlns="http://www.w3.org/2000/svg">
    <g clip-path="url(#clip0_135_88)">
        <path
            d="M40.4084 437.408L38.5819 412.035C26.6171 406.061 13.3731 403.095 0 403.393C18.8142 417.918 17.3072 446.949 30.337 466.816C34.4484 472.982 39.8962 478.144 46.2768 481.921C52.6573 485.698 59.8069 487.992 67.1959 488.634L82.8538 497.631C84.645 485.807 83.8483 473.736 80.5188 462.249C77.1893 450.762 71.4061 440.133 63.5676 431.093C59.1199 426.065 54.056 421.617 48.4955 417.853C45.0729 427.668 40.4084 437.408 40.4084 437.408Z"
            fill="#9EE6CE" />
        <path
            d="M371.599 441.087L373.425 415.714C385.39 409.74 398.634 406.773 412.007 407.072C393.193 421.597 394.7 450.627 381.67 470.495C377.559 476.661 372.111 481.823 365.73 485.6C359.35 489.376 352.2 491.67 344.811 492.312L329.153 501.309C327.362 489.485 328.159 477.414 331.488 465.927C334.818 454.441 340.601 443.811 348.439 434.772C352.887 429.744 357.951 425.296 363.512 421.532C366.934 431.347 371.599 441.087 371.599 441.087Z"
            fill="#5DD5AD" />
        <path
            d="M198.732 123.306C214.151 123.306 226.651 110.815 226.651 95.4073C226.651 79.9992 214.151 67.5085 198.732 67.5085C183.313 67.5085 170.813 79.9992 170.813 95.4073C170.813 110.815 183.313 123.306 198.732 123.306Z"
            fill="#2DB487" />
        <path
            d="M213.403 84.3149C212.984 83.9252 212.427 83.7078 211.847 83.7078C211.268 83.7078 210.71 83.9252 210.291 84.3149C204.376 88.9105 199.064 94.1969 194.473 100.055C193.346 97.9308 192.219 95.8063 191.092 93.6817C189.791 91.2295 185.992 93.3958 187.291 95.8459C188.94 98.9533 190.588 102.061 192.237 105.168C192.436 105.485 192.715 105.747 193.048 105.929C193.38 106.111 193.755 106.207 194.137 106.207C194.519 106.207 194.894 106.111 195.226 105.929C195.559 105.747 195.838 105.485 196.037 105.168C200.929 98.4557 206.777 92.4552 213.403 87.3469C213.813 86.9431 214.042 86.3984 214.042 85.8309C214.042 85.2633 213.813 84.7186 213.403 84.3149Z"
            fill="white" />
        <path
            d="M119.431 186.826L93.0474 145.443L123.599 129.101L131.617 160.675L188.115 191.168C190.346 190.366 192.762 190.23 195.069 190.776C197.375 191.322 199.473 192.526 201.106 194.242C202.74 195.958 203.838 198.112 204.266 200.441C204.695 202.769 204.437 205.172 203.522 207.357C202.607 209.541 201.075 211.412 199.114 212.742C197.153 214.072 194.847 214.804 192.476 214.847C190.106 214.891 187.775 214.244 185.766 212.987C183.757 211.73 182.158 209.916 181.163 207.767L119.431 186.826Z"
            fill="#A0616A" />
        <path
            d="M73.7719 95.8081C65.4822 107.965 94.9418 152.152 94.9418 152.152C96.377 149.063 110.096 183.759 112.394 181.71C118.924 175.884 129.148 159.658 134.83 158.935C138.08 158.521 127.293 135.502 127.293 135.502C127.293 135.502 122.363 121.909 115.674 104.546C113.874 99.6016 110.851 95.1929 106.886 91.7298C102.921 88.2667 98.1432 85.8619 92.9974 84.7392C92.9974 84.7392 82.0617 83.6517 73.7719 95.8081Z"
            fill="#1F2937" />
        <path d="M74.1766 491.869L86.7064 491.868L92.667 443.597L74.1738 443.598L74.1766 491.869Z"
            fill="#A0616A" />
        <path
            d="M70.98 487.783L74.5068 487.783L88.2761 482.19L95.656 487.782H95.657C99.8276 487.782 103.827 489.437 106.776 492.382C109.725 495.328 111.382 499.323 111.383 503.488V503.999L70.9807 504L70.98 487.783Z"
            fill="#2F2E41" />
        <path d="M132.388 491.869L144.918 491.868L150.879 443.597L132.386 443.598L132.388 491.869Z"
            fill="#A0616A" />
        <path
            d="M129.192 487.783L132.719 487.783L146.489 482.19L153.868 487.782H153.869C158.04 487.782 162.04 489.437 164.989 492.382C167.938 495.328 169.595 499.323 169.595 503.488V503.999L129.193 504L129.192 487.783Z"
            fill="#2F2E41" />
        <path
            d="M137.812 227.967L56.3115 230.002C40.8328 238.399 40.5977 256.573 45.6694 278.151C45.6694 278.151 43.9573 290.976 47.3815 294.397C50.8058 297.817 52.5179 297.817 50.8058 303.802C49.0936 309.787 58.1396 319.562 57.0408 320.66C55.9421 321.757 53.3739 327.742 53.3739 327.742L61.9345 376.478C61.9345 376.478 67.9269 461.125 69.6391 462.835C71.3512 464.545 73.0633 462.835 71.3512 467.11C69.6391 471.385 67.9269 469.675 69.6391 471.385C71.1557 473.018 72.5844 474.731 73.9194 476.515H94.6164C94.6164 476.515 96.1769 467.965 96.1769 467.11C96.1769 466.255 97.889 461.125 97.889 460.27C97.889 459.415 96.3757 457.903 96.3757 457.903C95.8528 456.165 95.4995 454.381 95.3208 452.575C95.3208 450.865 90.1845 385.028 90.1845 385.028L100.457 299.527L125.283 383.318C125.283 383.318 125.283 456.85 126.995 458.56C128.707 460.27 128.707 459.415 127.851 462.835C126.995 466.255 123.571 465.4 126.139 467.965C128.707 470.53 129.563 466.255 128.707 470.53L127.851 474.805L153.533 475.172C153.533 475.172 156.957 467.965 155.245 465.4C153.533 462.835 153.636 463.535 155.724 459.337C157.813 455.14 158.669 454.285 157.813 453.43C156.957 452.575 156.957 448.027 156.957 448.027L152.677 366.218C152.677 366.218 151.821 279.861 151.821 277.296C151.756 275.976 152 274.66 152.532 273.45V269.968L149.253 257.631L137.812 227.967Z"
            fill="#AEBDD5" />
        <path
            d="M88.8534 58.7058C102.839 58.7058 114.176 47.3822 114.176 33.4139C114.176 19.4456 102.839 8.12207 88.8534 8.12207C74.8681 8.12207 63.5308 19.4456 63.5308 33.4139C63.5308 47.3822 74.8681 58.7058 88.8534 58.7058Z"
            fill="#A0616A" />
        <path
            d="M101.515 75.422C106.97 78.6613 110.234 84.6131 112.107 90.6696C115.575 101.883 117.663 113.476 118.324 125.193L120.303 160.272L144.808 234.966C123.57 252.915 43.7382 239.045 43.7382 239.045C43.7382 239.045 41.2876 238.229 43.7382 235.781C46.1887 233.334 48.5744 235.502 46.1239 233.055C43.6733 230.607 45.3626 233.334 46.1795 230.886C46.9964 228.439 46.1795 230.07 45.3626 229.254C44.5458 228.438 51.6863 221.096 51.6863 221.096L45.1515 178.221L36.9829 91.7393C46.7853 79.5013 66.499 72.287 66.499 72.287L71.5928 63.1294L97.0617 65.1644L101.515 75.422Z"
            fill="#1F2937" />
        <path
            d="M109.728 19.9768C111.696 21.4429 113.154 23.4887 113.897 25.826C114.183 22.0063 114.201 18.1714 113.951 14.3492C113.653 11.6633 111.76 11.0591 109.567 10.3591C107.588 9.72662 105.349 9.01218 104.746 6.40479C96.7863 -1.32943 82.9296 -0.939419 73.4464 1.7584C68.2282 3.24293 65.2257 5.15029 64.9571 6.26765L64.9014 6.49769L64.6895 6.60352C60.6672 8.61222 59.8842 14.9553 59.9359 19.9226C60.0339 29.2815 63.2693 39.9108 65.0919 40.7743C65.1884 40.82 65.2128 40.8021 65.2546 40.7673C67.9989 38.5768 71.3472 40.9338 72.8186 42.2151C73.6865 36.3984 76.4809 31.04 80.7556 26.9956C85.0302 22.9512 90.5385 20.4542 96.4007 19.9033C98.3152 19.7185 100.214 19.4004 102.084 18.9514C103.033 18.7063 104.008 18.5785 104.988 18.5708C106.675 18.5453 108.329 19.0359 109.728 19.9768Z"
            fill="#2F2E41" />
        <path
            d="M266.928 248.12L315.64 198.715L328.474 159.201L307.821 150.857C297.59 161.165 287.059 192.718 287.059 192.718L253.812 237.286C253.546 237.384 253.281 237.489 253.021 237.612C251.49 238.334 250.171 239.438 249.193 240.817C248.214 242.197 247.608 243.805 247.434 245.487C247.259 247.168 247.522 248.867 248.197 250.417C248.871 251.968 249.935 253.318 251.285 254.338C252.635 255.358 254.226 256.013 255.903 256.24C257.581 256.466 259.288 256.257 260.861 255.632C262.434 255.007 263.819 253.987 264.881 252.671C265.944 251.355 266.649 249.788 266.928 248.12Z"
            fill="#D3939C" />
        <path
            d="M302.187 155.378L328.305 162.924L328.402 162.905C338.002 161.043 345.597 145.108 350.277 132.068C351.816 127.767 351.663 123.043 349.849 118.85C348.034 114.657 344.694 111.309 340.502 109.482C337.401 108.156 333.99 107.722 330.655 108.23C327.32 108.738 324.194 110.167 321.629 112.357L308.607 123.556L302.187 155.378Z"
            fill="#FAD189" />
        <path d="M279.841 490.401L265.795 490.4L259.113 436.289L279.843 436.29L279.841 490.401Z"
            fill="#D3939C" />
        <path
            d="M283.424 485.821L279.471 485.821L264.036 479.551L255.763 485.82H255.762C251.086 485.82 246.603 487.675 243.297 490.977C239.991 494.279 238.134 498.757 238.133 503.426V503.998L283.424 504L283.424 485.821Z"
            fill="#2F2E41" />
        <path d="M342.166 490.401L328.12 490.4L321.438 436.289L342.169 436.29L342.166 490.401Z"
            fill="#D3939C" />
        <path
            d="M345.749 485.821L341.796 485.821L326.36 479.551L318.087 485.82H318.086C313.411 485.82 308.927 487.675 305.622 490.977C302.316 494.279 300.458 498.757 300.458 503.426V503.998L345.748 504L345.749 485.821Z"
            fill="#2F2E41" />
        <path
            d="M363.584 257.322C363.584 257.322 365.224 276.98 361.124 295.818C357.024 314.657 357.024 367.713 357.024 367.713L348.003 471.099L320.941 468.642L313.56 295.819L287.318 353.972L289.778 362.163L286.501 364.211C286.501 364.211 288.958 380.182 287.318 380.182C285.678 380.182 281.578 382.64 281.578 382.64L284.858 467.004L256.976 466.184L247.135 347.42L257.796 279.437L258.616 266.332L262.306 266.484L264.185 261.008L267.636 251.589L363.584 257.322Z"
            fill="#33445B" />
        <path
            d="M365.002 261.451L365.148 261.246C372.954 250.331 361.214 224.103 359.443 220.301L366.901 217.884L365.221 203.625L364.426 197.269L370.126 191.576L370.142 191.434L373.422 162.766L378.192 143.726C379.989 136.528 379.835 128.982 377.748 121.863C375.66 114.743 371.713 108.307 366.312 103.214L355.288 92.8326L341.89 73.0322H320.284L312.875 87.0084C305.693 88.6663 299.321 92.7884 294.868 98.6565C290.416 104.525 288.166 111.767 288.51 119.122L290.189 155.777L283.616 201.416L283.612 209.675L276.215 217.886L277.83 225.952L272.2 228.362L269.715 239.947C268.686 241.303 261.896 250.346 261.896 252.818C261.896 253.189 262.17 253.547 262.759 253.945C267.386 257.075 292.962 263.455 304.282 258.931C316.339 254.116 364.27 261.339 364.753 261.413L365.002 261.451Z"
            fill="#FAD189" />
        <path
            d="M328.296 66.6404C344.099 66.6404 356.91 53.8449 356.91 38.0608C356.91 22.2767 344.099 9.4812 328.296 9.4812C312.492 9.4812 299.681 22.2767 299.681 38.0608C299.681 53.8449 312.492 66.6404 328.296 66.6404Z"
            fill="#D3939C" />
        <path
            d="M325.554 67.1029C329.985 67.0577 334.405 66.6344 338.764 65.8379C343.08 64.8448 352.602 57.4908 355.197 53.1463C357.125 49.9185 358.282 44.9257 358.914 41.3059C359.766 36.5153 359.602 31.5993 358.432 26.8761C357.261 22.153 355.11 17.7281 352.119 13.8879C350.965 12.2791 349.398 11.0116 347.583 10.2193C347.423 10.1613 347.257 10.1105 347.091 10.0677C344.46 9.44832 342.074 8.05754 340.24 6.07396C339.884 5.67237 339.499 5.29692 339.089 4.95053C337.031 3.30513 334.613 2.16943 332.032 1.63627C327.862 0.63604 321.897 1.88946 314.303 5.36488C310.488 7.11099 306.253 6.62387 302.989 6.00437C302.806 5.97394 302.619 5.99191 302.445 6.05646C302.271 6.12101 302.117 6.22991 301.998 6.37232C300.651 7.70274 298.849 8.47445 296.955 8.53236C295.796 8.61315 294.621 10.2489 293.204 12.3789C292.882 12.8625 292.507 13.4268 292.235 13.7711L292.18 13.1244L291.543 13.8639C290.541 15.0261 289.849 16.4227 289.533 17.9236C289.217 19.4245 289.286 20.981 289.734 22.448C290.182 23.9151 290.995 25.245 292.096 26.3139C293.197 27.3828 294.552 28.156 296.033 28.5615C297.208 28.8415 298.408 29.001 299.616 29.0374C300.348 29.0842 301.105 29.1326 301.832 29.2394C304.168 29.6547 306.356 30.6678 308.182 32.1798C310.009 33.6919 311.412 35.6511 312.254 37.8664C312.453 38.3783 312.767 38.8378 313.172 39.2093C313.577 39.5808 314.062 39.8544 314.589 40.009C315.117 40.1636 315.673 40.195 316.215 40.1009C316.756 40.0068 317.269 39.7896 317.713 39.4661C318.452 38.8602 319.327 38.4417 320.263 38.2464C321.199 38.0512 322.168 38.0849 323.088 38.3447C323.888 38.7624 324.52 39.4422 324.878 40.27C325.311 41.1914 326.008 41.9632 326.882 42.4869C329.861 43.925 330.237 50.6267 329.326 56.245C328.447 61.6605 326.536 65.6111 324.678 65.8519C323.248 66.037 323.086 66.143 322.989 66.399L322.902 66.6282L323.069 66.8361C323.868 67.1025 324.716 67.1935 325.554 67.1029Z"
            fill="#2F2E41" />
        <path
            d="M301.814 158.434L288.06 140.93C274.05 144.784 249.19 166.915 249.19 166.915L198.138 189.043C196.434 188.757 194.685 188.924 193.066 189.528C191.447 190.132 190.017 191.151 188.918 192.483C187.819 193.814 187.091 195.412 186.806 197.114C186.522 198.816 186.692 200.563 187.298 202.179C187.905 203.795 188.927 205.223 190.262 206.319C191.597 207.415 193.197 208.14 194.901 208.422C196.606 208.704 198.355 208.532 199.972 207.925C201.589 207.317 203.017 206.294 204.113 204.96L270.991 186.325L301.814 158.434Z"
            fill="#D3939C" />
        <path
            d="M298.517 162.436L320.22 138.273L321.425 121.151C321.649 117.789 320.927 114.432 319.341 111.458C317.755 108.484 315.368 106.012 312.449 104.322C308.477 102.058 303.793 101.385 299.343 102.438C294.893 103.492 291.009 106.194 288.478 109.998C280.809 121.541 272.56 137.147 276.805 145.947L276.848 146.036L298.517 162.436Z"
            fill="#FAD189" />
        <path
            d="M98.4908 253.258L42.0856 224.405C38.0736 222.353 36.7446 216.909 39.1232 212.27L75.9005 140.548C78.2791 135.909 83.4783 133.805 87.4904 135.857L143.896 164.71C147.908 166.762 149.237 172.206 146.858 176.844L110.081 248.567C107.702 253.206 102.503 255.31 98.4908 253.258Z"
            fill="#E6E6E6" />
        <path
            d="M88.8534 239.994L50.531 220.391C46.7734 218.469 45.5285 213.371 47.7562 209.026L78.3102 149.44C80.5379 145.096 85.4073 143.125 89.1649 145.048L135.451 168.724C139.208 170.646 140.453 175.744 138.225 180.088L121.626 212.458C111.704 231.81 105.591 248.555 88.8534 239.994Z"
            fill="white" />
        <path
            d="M107.801 207.454L73.8578 190.091C73.4428 189.796 73.148 189.361 73.0272 188.867C72.9065 188.372 72.9679 187.851 73.2002 187.398C73.4325 186.945 73.8202 186.59 74.2925 186.399C74.7648 186.208 75.2902 186.193 75.7727 186.357L109.716 203.719C110.131 204.015 110.426 204.449 110.547 204.944C110.667 205.438 110.606 205.96 110.374 206.413C110.141 206.866 109.754 207.22 109.281 207.411C108.809 207.603 108.284 207.618 107.801 207.454Z"
            fill="#FAD189" />
        <path
            d="M77.8203 201.432L70.0741 197.469C69.6591 197.174 69.3643 196.739 69.2435 196.245C69.1228 195.75 69.1842 195.229 69.4165 194.776C69.6488 194.323 70.0366 193.968 70.5089 193.777C70.9812 193.586 71.5066 193.571 71.9891 193.735L79.7353 197.697C80.1503 197.993 80.4451 198.427 80.5659 198.922C80.6866 199.416 80.6252 199.938 80.3929 200.391C80.1606 200.844 79.7729 201.198 79.3006 201.389C78.8282 201.58 78.3028 201.596 77.8203 201.432Z"
            fill="#FAD189" />
        <path
            d="M87.7565 215.828L66.2909 204.848C65.8759 204.552 65.5811 204.118 65.4603 203.623C65.3396 203.129 65.401 202.607 65.6333 202.154C65.8656 201.701 66.2533 201.347 66.7256 201.155C67.198 200.964 67.7234 200.949 68.2059 201.113L89.6716 212.093C90.0866 212.389 90.3814 212.823 90.5021 213.318C90.6229 213.812 90.5614 214.334 90.3291 214.787C90.0968 215.24 89.7091 215.594 89.2368 215.785C88.7645 215.976 88.2391 215.991 87.7565 215.828Z"
            fill="#FAD189" />
        <path
            d="M121.233 181.259L87.2899 163.896C86.8749 163.6 86.5801 163.166 86.4594 162.671C86.3386 162.177 86.4 161.655 86.6323 161.202C86.8646 160.749 87.2523 160.395 87.7247 160.204C88.197 160.013 88.7224 159.998 89.2049 160.161L123.148 177.524C123.563 177.819 123.858 178.254 123.979 178.749C124.099 179.243 124.038 179.764 123.806 180.217C123.573 180.671 123.186 181.025 122.713 181.216C122.241 181.407 121.716 181.422 121.233 181.259Z"
            fill="#FAD189" />
        <path
            d="M91.2524 175.236L83.5062 171.274C83.0912 170.979 82.7964 170.544 82.6757 170.05C82.5549 169.555 82.6164 169.034 82.8487 168.581C83.081 168.128 83.4687 167.773 83.941 167.582C84.4133 167.391 84.9387 167.376 85.4213 167.539L93.1674 171.502C93.5825 171.797 93.8773 172.232 93.998 172.726C94.1187 173.221 94.0573 173.742 93.825 174.195C93.5927 174.648 93.205 175.003 92.7327 175.194C92.2604 175.385 91.735 175.4 91.2524 175.236Z"
            fill="#FAD189" />
        <path
            d="M101.189 189.633L79.723 178.652C79.308 178.357 79.0132 177.922 78.8925 177.428C78.7717 176.933 78.8331 176.412 79.0654 175.959C79.2977 175.506 79.6855 175.151 80.1578 174.96C80.6301 174.769 81.1555 174.754 81.638 174.918L103.104 185.898C103.519 186.193 103.814 186.628 103.934 187.122C104.055 187.617 103.994 188.138 103.761 188.591C103.529 189.044 103.141 189.399 102.669 189.59C102.197 189.781 101.671 189.796 101.189 189.633Z"
            fill="#FAD189" />
        <path
            d="M51.75 190.816L39.0073 143.435L73.0592 136.997L71.228 169.519L115.969 215.531C118.338 215.435 120.684 216.028 122.72 217.24C124.757 218.452 126.396 220.229 127.439 222.356C128.482 224.482 128.883 226.866 128.593 229.216C128.302 231.565 127.334 233.78 125.805 235.59C124.277 237.4 122.254 238.726 119.984 239.408C117.713 240.089 115.294 240.096 113.019 239.427C110.745 238.759 108.715 237.444 107.176 235.643C105.637 233.842 104.656 231.632 104.353 229.284L51.75 190.816Z"
            fill="#A0616A" />
        <path
            d="M35.523 90.3107C23.9646 99.4244 38.7999 150.403 38.7999 150.403C41.0968 147.885 43.7659 185.094 46.5734 183.827C54.5525 180.226 69.1773 167.809 74.8154 168.821C78.0398 169.4 74.6616 144.209 74.6616 144.209C74.6616 144.209 74.0403 129.765 72.8725 111.197C72.6399 105.942 71.0797 100.83 68.3372 96.3391C65.5946 91.8478 61.759 88.1225 57.1872 85.5101C57.1872 85.5101 47.0815 81.197 35.523 90.3107Z"
            fill="#1F2937" />
        <path
            d="M227.844 295.982L197.064 281.465C196.406 281.156 195.826 280.703 195.369 280.138C194.911 279.574 194.587 278.913 194.422 278.206C194.255 277.514 194.247 276.794 194.399 276.098C194.551 275.403 194.858 274.751 195.298 274.192C204.214 262.81 210.337 249.501 213.174 235.33C213.389 234.245 213.973 233.268 214.829 232.565C215.684 231.862 216.756 231.478 217.864 231.476C233.562 231.53 245.294 237.255 252.734 248.49C253.126 249.075 253.386 249.738 253.495 250.433C253.605 251.128 253.561 251.838 253.368 252.515C249.06 267.344 242.505 281.427 233.931 294.276C233.294 295.247 232.327 295.955 231.208 296.269C230.089 296.583 228.894 296.481 227.844 295.982Z"
            fill="#A6A4DF" />
        <path
            d="M236.9 275.621L213.365 264.522C212.779 264.245 212.328 263.748 212.109 263.14C211.891 262.531 211.923 261.86 212.2 261.275C212.476 260.691 212.974 260.239 213.583 260.021C214.193 259.803 214.864 259.835 215.45 260.112L238.984 271.211C239.274 271.348 239.535 271.541 239.75 271.778C239.965 272.015 240.132 272.292 240.24 272.594C240.348 272.895 240.396 273.215 240.381 273.535C240.365 273.854 240.287 274.168 240.15 274.458C240.013 274.747 239.82 275.007 239.583 275.222C239.345 275.437 239.068 275.604 238.766 275.712C238.464 275.82 238.144 275.868 237.824 275.852C237.503 275.837 237.189 275.758 236.9 275.621Z"
            fill="white" />
        <path
            d="M240.555 267.888L217.02 256.788C216.435 256.512 215.983 256.015 215.765 255.406C215.546 254.798 215.579 254.127 215.855 253.542C216.132 252.957 216.63 252.506 217.239 252.288C217.849 252.07 218.52 252.102 219.105 252.379L242.64 263.478C243.226 263.754 243.677 264.252 243.896 264.86C244.115 265.469 244.082 266.14 243.805 266.725C243.529 267.309 243.031 267.76 242.422 267.979C241.812 268.197 241.141 268.164 240.555 267.888Z"
            fill="white" />
    </g>
    <defs>
        <clipPath id="clip0_135_88">
            <rect width="450" height="504" fill="white" />
        </clipPath>
    </defs>
</svg>