<svg width="496" height="364" viewBox="0 0 496 364" fill="none" xmlns="http://www.w3.org/2000/svg">
    <path
        d="M489.11 288.693H6.68644C4.91364 288.691 3.21397 287.986 1.96041 286.732C0.706846 285.479 0.00180471 283.779 0 282.006L0 6.68706C0.00164066 4.91415 0.70661 3.21432 1.96019 1.96063C3.21377 0.706932 4.91353 0.00180498 6.68644 0H489.11C490.883 0.00180498 492.583 0.706932 493.837 1.96063C495.09 3.21432 495.795 4.91415 495.797 6.68706V282.006C495.795 283.779 495.09 285.479 493.836 286.732C492.583 287.986 490.883 288.691 489.11 288.693Z"
        fill="#E4E9F1" />
    <path d="M483.321 10.5835H11.2329V276.962H483.321V10.5835Z" fill="white" />
    <path d="M482.117 9.33154H10.6001V275.387H482.117V9.33154Z" fill="white" />
    <path
        d="M56.4661 92.4548H125.962C127.279 92.4548 128.541 92.9778 129.472 93.9088C130.403 94.8398 130.926 96.1024 130.926 97.419V136.51C130.926 137.162 130.798 137.808 130.548 138.41C130.299 139.012 129.933 139.559 129.472 140.02C129.011 140.481 128.464 140.847 127.862 141.096C127.259 141.346 126.614 141.474 125.962 141.474H56.4661C55.8142 141.474 55.1687 141.346 54.5664 141.096C53.9641 140.847 53.4169 140.481 52.9559 140.02C52.495 139.559 52.1293 139.012 51.8798 138.41C51.6304 137.808 51.502 137.162 51.502 136.51V97.419C51.502 96.1024 52.025 94.8398 52.9559 93.9088C53.8869 92.9778 55.1495 92.4548 56.4661 92.4548Z"
        fill="#F2F2F2" />
    <path
        d="M167.534 28.5437H328.864C331.497 28.5437 334.022 29.5897 335.884 31.4515C337.746 33.3133 338.792 35.8384 338.792 38.4714V161.33C338.792 163.963 337.746 166.489 335.884 168.35C334.022 170.212 331.497 171.258 328.864 171.258H167.534C164.901 171.258 162.376 170.212 160.514 168.35C158.652 166.489 157.606 163.963 157.606 161.33V38.4714C157.606 35.8384 158.652 33.3133 160.514 31.4515C162.376 29.5897 164.901 28.5437 167.534 28.5437Z"
        fill="#2DB487" />
    <path
        d="M57.0857 156.366H126.582C127.898 156.366 129.161 156.889 130.092 157.82C131.023 158.751 131.546 160.014 131.546 161.33V200.421C131.546 201.073 131.417 201.719 131.168 202.321C130.918 202.923 130.553 203.471 130.092 203.932C129.631 204.393 129.084 204.758 128.481 205.008C127.879 205.257 127.234 205.386 126.582 205.386H57.0857C56.4338 205.386 55.7883 205.257 55.186 205.008C54.5838 204.758 54.0365 204.393 53.5756 203.932C53.1146 203.471 52.7489 202.923 52.4995 202.321C52.25 201.719 52.1216 201.073 52.1216 200.421V161.33C52.1216 160.014 52.6446 158.751 53.5756 157.82C54.5065 156.889 55.7692 156.366 57.0857 156.366Z"
        fill="#F2F2F2" />
    <path
        d="M167.535 177.463H333.828C335.145 177.463 336.408 177.986 337.339 178.917C338.27 179.848 338.792 181.111 338.792 182.427V200.422C338.792 201.738 338.27 203.001 337.339 203.932C336.408 204.863 335.145 205.386 333.828 205.386H167.535C166.218 205.386 164.956 204.863 164.025 203.932C163.094 203.001 162.571 201.738 162.571 200.422V182.427C162.571 181.111 163.094 179.848 164.025 178.917C164.956 177.986 166.218 177.463 167.535 177.463Z"
        fill="#F2F2F2" />
    <path d="M27.9418 201.453L24.3652 213.972L38.6702 214.866L37.7759 200.116L27.9418 201.453Z"
        fill="#9F616A" />
    <path
        d="M87.3716 252.55C90.7666 253.708 94.1157 252.897 94.8532 250.736C95.5907 248.574 93.4358 245.885 90.0402 244.724C88.6908 244.243 87.2458 244.092 85.826 244.283L71.3809 239.555L69.3066 246.381L83.7672 250.318C84.7742 251.339 86.0113 252.104 87.3747 252.549L87.3716 252.55Z"
        fill="#9F616A" />
    <path
        d="M39.4376 211.194C39.4376 211.194 30.4829 221.966 35.6633 226.424C40.8438 230.881 63.9777 247.381 63.9777 247.381L72.9962 248.785L75.3029 240.067L54.9381 224.977L39.4376 211.194Z"
        fill="#2DB487" />
    <path d="M63.1631 325.874L68.1396 344.315L76.0439 342.852L74.2875 323.826L63.1631 325.874Z"
        fill="#9F616A" />
    <path
        d="M69.3106 343.145L66.3835 343.731L64.0415 351.634C64.0415 351.634 67.8467 353.098 67.8467 356.025C67.8467 358.952 69.3106 361.002 75.1647 360.709C81.0188 360.415 81.6045 360.709 81.6045 358.367C81.6045 356.025 77.2136 343.73 77.2136 343.73C77.2136 343.73 77.5061 338.753 73.9909 339.047C70.4757 339.34 69.3075 343.145 69.3075 343.145H69.3106Z"
        fill="#090814" />
    <path d="M36.4033 325.587L36.7429 344.685L44.7656 345.189L47.692 326.306L36.4033 325.587Z"
        fill="#9F616A" />
    <path
        d="M38.1634 343.834L35.1817 343.69L30.9873 350.786C30.9873 350.786 34.3222 353.132 33.6101 355.971C32.898 358.81 33.8189 361.154 39.5689 362.292C45.3189 363.431 45.8153 363.859 46.3861 361.587C46.9569 359.316 45.6883 346.322 45.6883 346.322C45.6883 346.322 47.1831 341.567 43.7051 340.996C40.2271 340.424 38.1652 343.831 38.1652 343.831L38.1634 343.834Z"
        fill="#090814" />
    <path
        d="M39.7455 211.417L23.9383 210.246L20.4255 214.637C20.4255 214.637 18.6692 244.202 19.8399 247.13C21.0106 250.058 20.1324 266.743 20.1324 266.743L59.9821 263.962L51.1618 242.739L51.4544 230.445L43.5508 215.516L39.7455 211.417V211.417Z"
        fill="#2DB487" />
    <path
        d="M21.8883 260.594C21.8883 260.594 15.4485 269.962 17.7899 274.938C20.1313 279.915 36.0148 308.809 36.0148 308.809L33.9696 335.741L48.0205 334.57L50.3625 305.589L40.6251 281.964L42.3814 279.329L57.018 297.186L62.2858 328.216L76.3367 326.459L68.725 281.086L59.8298 263.598L21.8883 260.594Z"
        fill="#090814" />
    <path
        d="M33.0462 208.183C39.5738 208.183 44.8654 202.891 44.8654 196.363C44.8654 189.836 39.5738 184.544 33.0462 184.544C26.5187 184.544 21.2271 189.836 21.2271 196.363C21.2271 202.891 26.5187 208.183 33.0462 208.183Z"
        fill="#9F616A" />
    <path
        d="M32.0656 277.608C33.9521 280.659 37.0552 282.159 38.9969 280.959C40.9385 279.758 40.9801 276.311 39.0954 273.26C38.359 272.03 37.339 270.995 36.1206 270.241L27.9642 257.415L22.0264 261.37L30.696 273.595C30.8255 275.023 31.2951 276.399 32.0656 277.608Z"
        fill="#9F616A" />
    <path
        d="M21.3029 215.222C21.3029 215.222 7.54452 217.856 8.71522 224.589C9.88592 231.322 17.2776 258.757 17.2776 258.757L23.3511 265.57L30.6691 260.302L24.5218 235.712L21.2992 215.221L21.3029 215.222Z"
        fill="#2DB487" />
    <path
        d="M39.6277 186.739C41.6158 186.495 43.7979 186.668 45.3479 187.937C46.8979 189.206 47.398 191.845 45.9305 193.209C44.629 194.416 42.6 194.132 40.8597 194.476C39.3608 194.812 38.0179 195.641 37.046 196.83C36.074 198.02 35.5293 199.501 35.4989 201.037C35.525 205.442 39.7516 208.777 40.5108 213.115C40.718 214.609 40.5637 216.13 40.0609 217.552C39.558 218.973 38.7213 220.253 37.621 221.284C35.3825 223.33 32.5256 224.572 29.5023 224.812C26.4972 225.041 23.4756 224.726 20.5823 223.883C17.6361 223.185 14.8426 221.955 12.3396 220.252C9.82745 218.528 7.97817 216 7.09721 213.084C6.67904 211.629 6.62485 210.094 6.93944 208.613C7.25403 207.133 7.92777 205.752 8.9013 204.593C11.221 202.03 15.0808 201.15 17.0875 198.334C19.3372 195.179 18.5049 190.686 20.3251 187.266C21.5404 184.982 23.8421 183.423 26.2957 182.604C28.7834 181.879 31.3635 181.521 33.9545 181.542C35.3132 181.416 36.6833 181.566 37.9829 181.982C39.249 182.477 40.3621 183.607 40.4278 184.964C40.4817 185.306 40.4346 185.656 40.2925 185.971C40.1504 186.286 39.9193 186.553 39.6277 186.739Z"
        fill="#090814" />
    <path
        d="M56.4661 28.5437H125.962C127.279 28.5437 128.541 29.0667 129.472 29.9977C130.403 30.9286 130.926 32.1913 130.926 33.5079V72.599C130.926 73.2509 130.798 73.8964 130.548 74.4987C130.299 75.101 129.933 75.6482 129.472 76.1092C129.011 76.5701 128.464 76.9358 127.862 77.1853C127.259 77.4347 126.614 77.5631 125.962 77.5631H56.4661C55.8142 77.5631 55.1687 77.4347 54.5664 77.1853C53.9641 76.9358 53.4169 76.5701 52.9559 76.1092C52.495 75.6482 52.1293 75.101 51.8798 74.4987C51.6304 73.8964 51.502 73.2509 51.502 72.599V33.5079C51.502 32.1913 52.025 30.9286 52.9559 29.9977C53.8869 29.0667 55.1495 28.5437 56.4661 28.5437Z"
        fill="#F2F2F2" />
    <path
        d="M369.817 28.5437H439.313C440.629 28.5437 441.892 29.0667 442.823 29.9977C443.754 30.9286 444.277 32.1913 444.277 33.5079V72.599C444.277 73.2509 444.148 73.8964 443.899 74.4987C443.649 75.101 443.284 75.6482 442.823 76.1092C442.362 76.5701 441.815 76.9358 441.212 77.1853C440.61 77.4347 439.964 77.5631 439.313 77.5631H369.817C369.165 77.5631 368.519 77.4347 367.917 77.1853C367.315 76.9358 366.767 76.5701 366.307 76.1092C365.846 75.6482 365.48 75.101 365.23 74.4987C364.981 73.8964 364.853 73.2509 364.853 72.599V33.5079C364.853 32.1913 365.376 30.9286 366.307 29.9977C367.237 29.0667 368.5 28.5437 369.817 28.5437Z"
        fill="#F2F2F2" />
    <path
        d="M369.817 92.4548H439.313C440.629 92.4548 441.892 92.9778 442.823 93.9088C443.754 94.8398 444.277 96.1024 444.277 97.419V136.51C444.277 137.162 444.148 137.808 443.899 138.41C443.649 139.012 443.284 139.559 442.823 140.02C442.362 140.481 441.815 140.847 441.212 141.096C440.61 141.346 439.964 141.474 439.313 141.474H369.817C369.165 141.474 368.519 141.346 367.917 141.096C367.315 140.847 366.767 140.481 366.307 140.02C365.846 139.559 365.48 139.012 365.23 138.41C364.981 137.808 364.853 137.162 364.853 136.51V97.419C364.853 96.1024 365.376 94.8398 366.307 93.9088C367.237 92.9778 368.5 92.4548 369.817 92.4548Z"
        fill="#F2F2F2" />
    <path
        d="M369.817 156.366H439.313C440.629 156.366 441.892 156.889 442.823 157.82C443.754 158.751 444.277 160.014 444.277 161.33V200.421C444.277 201.073 444.148 201.719 443.899 202.321C443.649 202.923 443.284 203.471 442.823 203.932C442.362 204.393 441.815 204.758 441.212 205.008C440.61 205.257 439.964 205.386 439.313 205.386H369.817C369.165 205.386 368.519 205.257 367.917 205.008C367.315 204.758 366.767 204.393 366.307 203.932C365.846 203.471 365.48 202.923 365.23 202.321C364.981 201.719 364.853 201.073 364.853 200.421V161.33C364.853 160.014 365.376 158.751 366.307 157.82C367.237 156.889 368.5 156.366 369.817 156.366Z"
        fill="#F2F2F2" />
    <path
        d="M259.38 106.726H98.0263C92.5499 106.726 88.1104 111.166 88.1104 116.642V239.525C88.1104 245.001 92.5499 249.441 98.0263 249.441H259.38C264.856 249.441 269.296 245.001 269.296 239.525V116.642C269.296 111.166 264.856 106.726 259.38 106.726Z"
        fill="white" />
    <path
        d="M247.898 218.151H108.455C102.979 218.151 98.5396 222.59 98.5396 228.067C98.5396 233.543 102.979 237.983 108.455 237.983H247.898C253.375 237.983 257.814 233.543 257.814 228.067C257.814 222.59 253.375 218.151 247.898 218.151Z"
        fill="#2DB487" />
    <path
        d="M247.898 188.403H108.455C102.979 188.403 98.5396 192.842 98.5396 198.319C98.5396 203.795 102.979 208.235 108.455 208.235H247.898C253.375 208.235 257.814 203.795 257.814 198.319C257.814 192.842 253.375 188.403 247.898 188.403Z"
        fill="#E6E6E6" />
    <path
        d="M109.695 202.037C111.749 202.037 113.414 200.372 113.414 198.319C113.414 196.265 111.749 194.6 109.695 194.6C107.641 194.6 105.977 196.265 105.977 198.319C105.977 200.372 107.641 202.037 109.695 202.037Z"
        fill="#090814" />
    <path
        d="M122.09 202.037C124.144 202.037 125.809 200.372 125.809 198.319C125.809 196.265 124.144 194.6 122.09 194.6C120.036 194.6 118.372 196.265 118.372 198.319C118.372 200.372 120.036 202.037 122.09 202.037Z"
        fill="#090814" />
    <path
        d="M134.485 202.037C136.539 202.037 138.204 200.372 138.204 198.319C138.204 196.265 136.539 194.6 134.485 194.6C132.431 194.6 130.767 196.265 130.767 198.319C130.767 200.372 132.431 202.037 134.485 202.037Z"
        fill="#090814" />
    <path
        d="M146.88 202.037C148.933 202.037 150.598 200.372 150.598 198.319C150.598 196.265 148.933 194.6 146.88 194.6C144.826 194.6 143.161 196.265 143.161 198.319C143.161 200.372 144.826 202.037 146.88 202.037Z"
        fill="#090814" />
    <path
        d="M159.275 202.037C161.328 202.037 162.993 200.372 162.993 198.319C162.993 196.265 161.328 194.6 159.275 194.6C157.221 194.6 155.556 196.265 155.556 198.319C155.556 200.372 157.221 202.037 159.275 202.037Z"
        fill="#090814" />
    <path
        d="M171.67 202.037C173.723 202.037 175.388 200.372 175.388 198.319C175.388 196.265 173.723 194.6 171.67 194.6C169.616 194.6 167.951 196.265 167.951 198.319C167.951 200.372 169.616 202.037 171.67 202.037Z"
        fill="#090814" />
    <path
        d="M184.065 202.037C186.118 202.037 187.783 200.372 187.783 198.319C187.783 196.265 186.118 194.6 184.065 194.6C182.011 194.6 180.346 196.265 180.346 198.319C180.346 200.372 182.011 202.037 184.065 202.037Z"
        fill="#090814" />
    <path
        d="M196.46 202.037C198.513 202.037 200.178 200.372 200.178 198.319C200.178 196.265 198.513 194.6 196.46 194.6C194.406 194.6 192.741 196.265 192.741 198.319C192.741 200.372 194.406 202.037 196.46 202.037Z"
        fill="#090814" />
    <path
        d="M208.854 202.037C210.908 202.037 212.573 200.372 212.573 198.319C212.573 196.265 210.908 194.6 208.854 194.6C206.801 194.6 205.136 196.265 205.136 198.319C205.136 200.372 206.801 202.037 208.854 202.037Z"
        fill="#090814" />
    <path
        d="M178.487 147.5C186.701 147.5 193.361 140.84 193.361 132.626C193.361 124.411 186.701 117.752 178.487 117.752C170.272 117.752 163.613 124.411 163.613 132.626C163.613 140.84 170.272 147.5 178.487 147.5Z"
        fill="#E6E6E6" />
    <path d="M226.827 175.384H197.079V180.342H226.827V175.384Z" fill="#E6E6E6" />
    <path
        d="M228.066 175.384H255.335C255.993 175.384 256.623 175.645 257.088 176.11C257.553 176.575 257.814 177.206 257.814 177.863C257.814 178.52 257.553 179.151 257.088 179.616C256.623 180.081 255.993 180.342 255.335 180.342H228.066V175.384Z"
        fill="#2DB487" />
    <path
        d="M168.571 175.384H195.84V180.342H168.571C167.913 180.342 167.283 180.081 166.818 179.616C166.353 179.151 166.092 178.52 166.092 177.863C166.092 177.206 166.353 176.575 166.818 176.11C167.283 175.645 167.913 175.384 168.571 175.384Z"
        fill="#E6E6E6" />
    <path
        d="M104.043 183.366C107.082 183.366 109.546 180.902 109.546 177.863C109.546 174.824 107.082 172.36 104.043 172.36C101.003 172.36 98.5396 174.824 98.5396 177.863C98.5396 180.902 101.003 183.366 104.043 183.366Z"
        fill="#2DB487" />
    <path
        d="M103.132 180.568C103.037 180.567 102.943 180.545 102.858 180.502C102.773 180.459 102.699 180.396 102.642 180.32L101.141 178.318C101.089 178.254 101.052 178.18 101.029 178.101C101.007 178.022 101.001 177.94 101.011 177.858C101.022 177.777 101.048 177.698 101.089 177.627C101.131 177.557 101.186 177.495 101.251 177.445C101.317 177.396 101.392 177.361 101.471 177.341C101.551 177.321 101.634 177.318 101.715 177.331C101.796 177.343 101.874 177.373 101.943 177.416C102.013 177.459 102.073 177.516 102.12 177.584L103.102 178.893L105.625 175.109C105.716 174.974 105.856 174.88 106.015 174.849C106.175 174.817 106.34 174.85 106.476 174.94C106.611 175.031 106.704 175.171 106.736 175.331C106.768 175.49 106.735 175.656 106.644 175.791L103.641 180.295C103.587 180.377 103.514 180.444 103.429 180.491C103.343 180.539 103.247 180.565 103.149 180.568H103.132Z"
        fill="white" />
    <path
        d="M98.0381 107.966C96.8971 107.966 95.7672 108.19 94.713 108.627C93.6589 109.063 92.701 109.703 91.8942 110.51C91.0874 111.317 90.4474 112.275 90.0109 113.329C89.5743 114.383 89.3497 115.513 89.3498 116.654V239.513C89.3498 241.817 90.2651 244.027 91.8942 245.656C93.5233 247.285 95.7329 248.2 98.0368 248.2H259.368C261.672 248.2 263.881 247.285 265.511 245.656C267.14 244.027 268.055 241.817 268.055 239.513V116.654C268.055 115.513 267.83 114.383 267.394 113.329C266.957 112.275 266.318 111.317 265.511 110.511C264.704 109.704 263.747 109.064 262.693 108.627C261.638 108.191 260.509 107.966 259.368 107.966H98.0381ZM98.0381 106.726H259.368C262.001 106.726 264.526 107.772 266.388 109.634C268.25 111.496 269.296 114.021 269.296 116.654V239.513C269.296 242.146 268.25 244.671 266.388 246.533C264.526 248.395 262.001 249.441 259.368 249.441H98.0381C95.4051 249.441 92.8799 248.395 91.0181 246.533C89.1563 244.671 88.1104 242.146 88.1104 239.513V116.654C88.1104 114.021 89.1563 111.496 91.0181 109.634C92.8799 107.772 95.4051 106.726 98.0381 106.726Z"
        fill="#090814" />
    <path
        d="M241.1 116.763C241.671 116.763 242.228 116.932 242.703 117.249C243.178 117.566 243.547 118.017 243.766 118.544C243.984 119.071 244.041 119.652 243.93 120.211C243.819 120.771 243.544 121.285 243.14 121.689C242.737 122.092 242.223 122.367 241.663 122.479C241.103 122.59 240.523 122.533 239.996 122.314C239.468 122.096 239.018 121.726 238.701 121.252C238.384 120.777 238.214 120.219 238.214 119.648C238.214 118.883 238.518 118.149 239.06 117.608C239.601 117.067 240.335 116.763 241.1 116.763Z"
        fill="#090814" />
    <path
        d="M248.795 116.763C249.366 116.763 249.924 116.932 250.398 117.249C250.873 117.566 251.243 118.017 251.461 118.544C251.679 119.071 251.737 119.652 251.625 120.211C251.514 120.771 251.239 121.285 250.836 121.689C250.432 122.092 249.918 122.367 249.358 122.479C248.798 122.59 248.218 122.533 247.691 122.314C247.164 122.096 246.713 121.726 246.396 121.252C246.079 120.777 245.91 120.219 245.91 119.648C245.91 118.883 246.214 118.149 246.755 117.608C247.296 117.067 248.03 116.763 248.795 116.763Z"
        fill="#090814" />
    <path
        d="M256.491 116.763C257.061 116.763 257.619 116.932 258.094 117.249C258.568 117.566 258.938 118.017 259.156 118.544C259.375 119.071 259.432 119.652 259.321 120.211C259.209 120.771 258.934 121.285 258.531 121.689C258.127 122.092 257.613 122.367 257.053 122.479C256.494 122.59 255.914 122.533 255.386 122.314C254.859 122.096 254.408 121.726 254.091 121.252C253.774 120.777 253.605 120.219 253.605 119.648C253.605 118.883 253.909 118.149 254.45 117.608C254.991 117.067 255.725 116.763 256.491 116.763Z"
        fill="#090814" />
</svg>