<svg width="859" height="495" viewBox="0 0 859 495" fill="none" xmlns="http://www.w3.org/2000/svg">
    <g clip-path="url(#clip0_135_224)">
        <path
            d="M370.896 318.497H45.0708C40.6784 318.492 36.4674 316.743 33.3615 313.634C30.2556 310.525 28.5086 306.309 28.5037 301.912V102.763C28.5074 99.4145 29.8377 96.2043 32.2029 93.8367C34.568 91.469 37.7748 90.1371 41.1197 90.1333H374.66C378.054 90.1371 381.309 91.4887 383.709 93.8915C386.109 96.2943 387.459 99.5521 387.463 102.95V301.912C387.458 306.309 385.711 310.525 382.605 313.634C379.5 316.743 375.288 318.492 370.896 318.497Z"
            fill="white" />
        <path
            d="M370.896 318.497H45.0708C40.6784 318.492 36.4674 316.743 33.3615 313.634C30.2556 310.525 28.5086 306.309 28.5037 301.912V102.763C28.5074 99.4145 29.8377 96.2043 32.2029 93.8367C34.568 91.469 37.7748 90.1371 41.1197 90.1333H374.66C378.054 90.1371 381.309 91.4887 383.709 93.8915C386.109 96.2943 387.459 99.5521 387.463 102.95V301.912C387.458 306.309 385.711 310.525 382.605 313.634C379.5 316.743 375.288 318.492 370.896 318.497ZM41.1197 93.7191C38.7245 93.7219 36.4283 94.6756 34.7347 96.3711C33.0411 98.0665 32.0884 100.365 32.0858 102.763V301.912C32.0897 305.358 33.459 308.662 35.8933 311.099C38.3276 313.536 41.6282 314.907 45.0708 314.911H370.896C374.339 314.907 377.639 313.536 380.074 311.099C382.508 308.662 383.877 305.358 383.881 301.912V102.95C383.878 100.503 382.906 98.1564 381.177 96.4258C379.449 94.6953 377.105 93.7218 374.66 93.7191H41.1197Z"
            fill="#E6E6E6" />
        <path
            d="M177.26 268.075H79.6305C77.2418 268.071 74.9356 267.2 73.1397 265.624C71.3438 264.047 70.1802 261.872 69.8648 259.502C69.8055 259.075 69.777 258.645 69.7797 258.214V150.416C69.7827 147.801 70.8215 145.295 72.6682 143.446C74.5149 141.598 77.0188 140.558 79.6305 140.555H177.26C179.872 140.558 182.376 141.598 184.223 143.446C186.069 145.295 187.108 147.801 187.111 150.416V258.214C187.108 260.828 186.069 263.335 184.223 265.183C182.376 267.032 179.872 268.072 177.26 268.075ZM79.6305 145.934C78.4433 145.935 77.3052 146.408 76.4658 147.248C75.6264 148.088 75.1542 149.228 75.1528 150.416V258.214C75.1509 258.398 75.1623 258.582 75.187 258.765C75.324 259.849 75.8507 260.845 76.6684 261.569C77.4862 262.292 78.5391 262.693 79.6305 262.696H177.26C178.447 262.695 179.586 262.222 180.425 261.382C181.264 260.541 181.737 259.402 181.738 258.214V150.416C181.737 149.228 181.264 148.088 180.425 147.248C179.586 146.408 178.447 145.935 177.26 145.934H79.6305Z"
            fill="#E6E6E6" />
        <path
            d="M339.023 233.023H220.814C218.914 233.023 217.092 232.268 215.748 230.923C214.405 229.578 213.65 227.754 213.65 225.852C213.65 223.95 214.405 222.126 215.748 220.781C217.092 219.436 218.914 218.68 220.814 218.68H339.023C340.923 218.68 342.745 219.436 344.089 220.781C345.432 222.126 346.187 223.95 346.187 225.852C346.187 227.754 345.432 229.578 344.089 230.923C342.745 232.268 340.923 233.023 339.023 233.023Z"
            fill="#E6E6E6" />
        <path
            d="M285.292 202.544H220.814C218.914 202.544 217.092 201.789 215.748 200.444C214.405 199.099 213.65 197.275 213.65 195.373C213.65 193.47 214.405 191.646 215.748 190.301C217.092 188.956 218.914 188.201 220.814 188.201H285.292C287.192 188.201 289.014 188.956 290.358 190.301C291.701 191.646 292.456 193.47 292.456 195.373C292.456 197.275 291.701 199.099 290.358 200.444C289.014 201.789 287.192 202.544 285.292 202.544Z"
            fill="#E6E6E6" />
        <path
            d="M160.636 201.352C160.636 217.195 146.002 214.799 127.949 214.799C109.897 214.799 95.2627 217.195 95.2627 201.352C95.2627 185.509 102.411 157.426 127.949 157.426C154.367 157.426 160.636 185.509 160.636 201.352Z"
            fill="#2F2E41" />
        <path
            d="M161.959 228.016C161.328 226.194 160.071 224.656 158.412 223.677C158.092 223.48 157.757 223.309 157.409 223.166C155.955 222.561 154.355 222.392 152.806 222.682C151.258 222.972 149.827 223.707 148.689 224.798C147.551 225.889 146.755 227.288 146.398 228.824C146.042 230.36 146.14 231.967 146.681 233.448L159.702 263.076H176.851L161.959 228.016Z"
            fill="#3F3D56" />
        <path
            d="M105.137 229.63C104.108 229.132 102.985 228.857 101.843 228.824C100.7 228.791 99.5637 229.001 98.5075 229.438C97.4514 229.876 96.4996 230.532 95.7146 231.364C94.9296 232.195 94.3291 233.184 93.9525 234.264L81.8271 262.816C82.4481 262.99 83.0898 263.077 83.7345 263.076H98.9496L109.23 239.697C109.915 237.809 109.876 235.734 109.12 233.874C108.364 232.014 106.945 230.501 105.137 229.63Z"
            fill="#3F3D56" />
        <path
            d="M127.84 214.772C139.988 214.772 149.835 204.915 149.835 192.755C149.835 180.595 139.988 170.737 127.84 170.737C115.693 170.737 105.845 180.595 105.845 192.755C105.845 204.915 115.693 214.772 127.84 214.772Z"
            fill="#FFB8B8" />
        <path
            d="M158.797 224.027C158.672 223.91 158.547 223.785 158.412 223.677C156.879 222.293 155.064 221.259 153.093 220.644C151.122 220.03 149.041 219.85 146.994 220.118L106.463 225.255C102.75 225.715 99.3621 227.604 97.0181 230.523C94.674 233.442 93.5583 237.16 93.9076 240.889C94.4629 247.146 95.3584 255.044 96.7914 263.076H160.821L163.176 235.681C163.366 233.534 163.071 231.372 162.313 229.354C161.555 227.337 160.353 225.516 158.797 224.027Z"
            fill="#3F3D56" />
        <path
            d="M102.427 190.595H111.126L114.964 179.837L115.732 190.595H119.89L122.128 184.319L122.576 190.595H153.472C153.472 184.413 151.019 178.485 146.652 174.114C142.286 169.742 136.363 167.287 130.188 167.287H125.711C119.535 167.287 113.613 169.742 109.247 174.114C104.88 178.485 102.427 184.413 102.427 190.595Z"
            fill="#2F2E41" />
        <path
            d="M473.811 301.912V102.95C473.815 99.5521 475.165 96.2943 477.565 93.8915C479.965 91.4887 483.22 90.1371 486.614 90.1333H820.155C823.499 90.1371 826.706 91.469 829.071 93.8367C831.437 96.2043 832.767 99.4145 832.771 102.763V301.912C832.766 306.309 831.019 310.525 827.913 313.634C824.807 316.743 820.596 318.492 816.203 318.497H490.378C485.986 318.492 481.775 316.743 478.669 313.634C475.563 310.525 473.816 306.309 473.811 301.912Z"
            fill="white" />
        <path
            d="M473.811 301.912V102.95C473.815 99.5521 475.165 96.2943 477.565 93.8915C479.965 91.4887 483.22 90.1371 486.614 90.1333H820.155C823.499 90.1371 826.706 91.469 829.071 93.8367C831.437 96.2043 832.767 99.4145 832.771 102.763V301.912C832.766 306.309 831.019 310.525 827.913 313.634C824.807 316.743 820.596 318.492 816.203 318.497H490.378C485.986 318.492 481.775 316.743 478.669 313.634C475.563 310.525 473.816 306.309 473.811 301.912ZM486.614 93.7191C484.17 93.7218 481.826 94.6953 480.097 96.4258C478.368 98.1564 477.396 100.503 477.393 102.95V301.912C477.397 305.358 478.766 308.662 481.201 311.099C483.635 313.536 486.936 314.907 490.378 314.911H816.203C819.646 314.907 822.947 313.536 825.381 311.099C827.815 308.662 829.185 305.358 829.189 301.912V102.763C829.186 100.365 828.233 98.0665 826.54 96.3711C824.846 94.6756 822.55 93.7219 820.155 93.7191H486.614Z"
            fill="#E6E6E6" />
        <path
            d="M674.163 258.214V150.416C674.166 147.801 675.205 145.295 677.051 143.446C678.898 141.598 681.402 140.558 684.014 140.555H781.643C784.255 140.558 786.759 141.598 788.606 143.446C790.452 145.295 791.491 147.801 791.494 150.416V258.214C791.497 258.645 791.468 259.075 791.409 259.502C791.094 261.872 789.93 264.047 788.134 265.624C786.338 267.2 784.032 268.071 781.643 268.075H684.014C681.402 268.072 678.898 267.032 677.051 265.183C675.205 263.335 674.166 260.828 674.163 258.214ZM684.014 145.934C682.826 145.935 681.688 146.408 680.849 147.248C680.01 148.088 679.537 149.228 679.536 150.416V258.214C679.537 259.402 680.01 260.541 680.849 261.382C681.688 262.222 682.826 262.695 684.014 262.696H781.643C782.735 262.693 783.788 262.292 784.605 261.569C785.423 260.845 785.95 259.849 786.087 258.765C786.112 258.582 786.123 258.398 786.121 258.214V150.416C786.12 149.228 785.647 148.088 784.808 147.248C783.969 146.408 782.831 145.935 781.643 145.934H684.014Z"
            fill="#E6E6E6" />
        <path
            d="M515.087 225.852C515.089 223.95 515.844 222.128 517.187 220.783C518.53 219.439 520.351 218.682 522.251 218.68H640.46C642.36 218.68 644.182 219.436 645.526 220.781C646.869 222.126 647.624 223.95 647.624 225.852C647.624 227.754 646.869 229.578 645.526 230.923C644.182 232.268 642.36 233.023 640.46 233.023H522.251C520.351 233.021 518.53 232.265 517.187 230.92C515.844 229.576 515.089 227.753 515.087 225.852Z"
            fill="#E6E6E6" />
        <path
            d="M515.087 195.373C515.089 193.471 515.844 191.648 517.187 190.304C518.53 188.959 520.351 188.203 522.251 188.201H586.728C588.628 188.201 590.451 188.956 591.794 190.301C593.138 191.646 593.893 193.47 593.893 195.373C593.893 197.275 593.138 199.099 591.794 200.444C590.451 201.789 588.628 202.544 586.728 202.544H522.251C520.351 202.542 518.53 201.786 517.187 200.441C515.844 199.097 515.089 197.274 515.087 195.373Z"
            fill="#E6E6E6" />
        <path
            d="M708.702 182.446C714.98 194.802 719.928 207.546 733.776 207.546C740.426 207.546 746.804 204.902 751.507 200.195C756.209 195.487 758.851 189.103 758.851 182.446C758.851 175.789 756.209 169.404 751.507 164.697C746.804 159.99 740.426 157.345 733.776 157.345C719.702 157.169 697.016 159.447 708.702 182.446Z"
            fill="#2F2E41" />
        <path
            d="M732.542 208.035C744.69 208.035 754.537 198.177 754.537 186.017C754.537 173.857 744.69 164 732.542 164C720.395 164 710.547 173.857 710.547 186.017C710.547 198.177 720.395 208.035 732.542 208.035Z"
            fill="#A0616A" />
        <path
            d="M762.571 226.151C761.153 224.605 759.61 223.178 757.959 221.884C750.739 216.22 741.69 213.412 732.535 213.996C732.168 214.013 731.801 214.04 731.434 214.076C726.132 214.5 720.981 216.05 716.324 218.622C711.667 221.194 707.611 224.73 704.425 228.993C701.19 233.322 698.915 238.292 697.754 243.572C696.592 248.851 696.571 254.318 697.691 259.607C697.932 260.727 698.147 261.857 698.353 262.986H771.266L772.108 257.339C772.95 251.757 772.53 246.058 770.879 240.66C769.229 235.263 766.39 230.305 762.571 226.151Z"
            fill="#3F3D56" />
        <path
            d="M773.739 232.041C773.225 229.095 771.695 226.423 769.415 224.49C767.136 222.558 764.251 221.486 761.264 221.463C761.148 221.463 761.022 221.472 760.906 221.472C759.911 221.495 758.922 221.633 757.96 221.884C756.341 222.315 754.824 223.061 753.494 224.08C752.165 225.099 751.05 226.371 750.213 227.823C749.375 229.275 748.833 230.878 748.617 232.54C748.4 234.202 748.514 235.891 748.951 237.509L755.837 262.986H779.014L773.739 232.041Z"
            fill="#3F3D56" />
        <path
            d="M722.738 225.363C721.865 223.645 720.612 222.149 719.076 220.988C717.988 220.165 716.771 219.529 715.476 219.105C714.946 218.924 714.404 218.78 713.855 218.675C710.86 218.108 707.76 218.631 705.117 220.15C702.473 221.668 700.458 224.083 699.437 226.958L686.828 262.986H710.756L722.962 236.487C723.776 234.739 724.179 232.827 724.14 230.899C724.101 228.971 723.622 227.077 722.738 225.363Z"
            fill="#3F3D56" />
        <path
            d="M709.202 173.574C714.228 177.042 720.194 178.887 726.298 178.863C724.121 180.374 721.642 181.395 719.032 181.855C727.148 183.598 735.536 183.645 743.672 181.994C745.48 181.704 747.225 181.104 748.83 180.221C749.629 179.773 750.326 179.163 750.875 178.429C751.423 177.694 751.811 176.852 752.013 175.958C752.554 172.867 750.147 170.058 747.647 168.165C743.818 165.311 739.403 163.345 734.722 162.409C730.041 161.472 725.211 161.589 720.58 162.751C717.557 163.533 714.528 164.855 712.564 167.286C710.6 169.716 710.018 173.464 711.889 175.967L709.202 173.574Z"
            fill="#2F2E41" />
        <path
            d="M593.55 447.585H267.725C263.332 447.58 259.121 445.831 256.015 442.722C252.909 439.613 251.162 435.398 251.157 431.001V231.851C251.161 228.503 252.492 225.293 254.857 222.925C257.222 220.558 260.429 219.226 263.773 219.222H597.314C600.708 219.226 603.963 220.577 606.363 222.98C608.763 225.383 610.113 228.641 610.117 232.039V431.001C610.112 435.398 608.365 439.613 605.259 442.722C602.153 445.831 597.942 447.58 593.55 447.585Z"
            fill="white" />
        <path
            d="M593.55 447.585H267.725C263.332 447.58 259.121 445.831 256.015 442.722C252.909 439.613 251.162 435.398 251.157 431.001V231.851C251.161 228.503 252.492 225.293 254.857 222.925C257.222 220.558 260.429 219.226 263.773 219.222H597.314C600.708 219.226 603.963 220.577 606.363 222.98C608.763 225.383 610.113 228.641 610.117 232.039V431.001C610.112 435.398 608.365 439.613 605.259 442.722C602.153 445.831 597.942 447.58 593.55 447.585ZM263.773 222.808C261.378 222.811 259.082 223.764 257.388 225.46C255.695 227.155 254.742 229.454 254.74 231.851V431.001C254.743 434.447 256.113 437.751 258.547 440.188C260.981 442.625 264.282 443.995 267.725 443.999H593.55C596.993 443.995 600.293 442.625 602.727 440.188C605.162 437.751 606.531 434.447 606.535 431.001V232.039C606.532 229.591 605.56 227.245 603.831 225.514C602.102 223.784 599.759 222.81 597.314 222.808H263.773Z"
            fill="#3F3D56" />
        <path
            d="M399.914 397.163H302.284C299.895 397.16 297.589 396.289 295.793 394.712C293.997 393.136 292.834 390.961 292.518 388.591C292.459 388.164 292.431 387.733 292.433 387.302V279.504C292.436 276.89 293.475 274.384 295.322 272.535C297.168 270.686 299.672 269.647 302.284 269.644H399.914C402.526 269.647 405.029 270.686 406.876 272.535C408.723 274.384 409.762 276.89 409.765 279.504V387.302C409.762 389.917 408.723 392.423 406.876 394.272C405.029 396.121 402.526 397.16 399.914 397.163ZM302.284 275.022C301.097 275.024 299.959 275.496 299.119 276.337C298.28 277.177 297.808 278.316 297.806 279.504V387.302C297.804 387.487 297.816 387.671 297.841 387.854C297.978 388.937 298.504 389.934 299.322 390.658C300.14 391.381 301.193 391.782 302.284 391.785H399.914C401.101 391.783 402.239 391.311 403.078 390.47C403.918 389.63 404.39 388.491 404.391 387.302V279.504C404.39 278.316 403.918 277.177 403.078 276.337C402.239 275.496 401.101 275.024 399.914 275.022H302.284Z"
            fill="#E6E6E6" />
        <path
            d="M349.681 289.351C343.326 286.391 335.523 285.421 329.056 288.171C322.589 290.921 318.18 297.971 320.271 304.209C321.219 307.038 323.379 309.82 322.537 312.676C321.89 314.875 319.631 316.327 317.413 317.359C315.194 318.391 312.768 319.259 311.163 321C309.559 322.741 309.224 325.738 311.229 327.088C311.889 327.533 312.714 327.744 313.354 328.213C313.9 328.657 314.294 329.26 314.481 329.938C314.668 330.617 314.638 331.337 314.397 331.998C313.863 333.328 312.981 334.489 311.844 335.36C309.569 337.324 306.562 339.572 307.269 342.36C307.531 343.105 307.968 343.776 308.545 344.316C309.121 344.855 309.819 345.248 310.579 345.46C312.158 345.916 313.796 346.132 315.439 346.102L382.573 348.219C384.789 348.386 387.018 348.261 389.201 347.848C390.263 347.655 391.273 347.244 392.169 346.641C393.065 346.039 393.826 345.258 394.407 344.348C395.693 341.966 394.849 339.031 393.261 336.807C391.673 334.583 389.426 332.828 387.57 330.785C385.713 328.743 384.194 326.193 384.521 323.553C384.783 321.44 386.176 319.614 387.175 317.694C388.174 315.774 388.755 313.374 387.461 311.608C385.637 309.119 381.257 309.344 379.183 307.024C377.618 305.274 377.92 302.754 377.765 300.497C377.39 295.068 373.635 289.94 368.29 287.559C365.572 286.391 362.615 285.887 359.664 286.088C356.713 286.289 353.852 287.19 351.317 288.716L349.681 289.351Z"
            fill="#2F2E41" />
        <path
            d="M352.165 347.698C364.313 347.698 374.16 337.841 374.16 325.681C374.16 313.52 364.313 303.663 352.165 303.663C340.018 303.663 330.17 313.52 330.17 325.681C330.17 337.841 340.018 347.698 352.165 347.698Z"
            fill="#A0616A" />
        <path
            d="M381.043 376.133C381.021 372.273 379.953 368.493 377.953 365.193C375.953 361.893 373.096 359.199 369.687 357.397C369.41 357.245 369.123 357.11 368.837 356.976C366.362 355.801 363.682 355.119 360.947 354.968L340.01 353.793C337.053 353.624 334.093 354.079 331.323 355.129C330.649 355.38 329.988 355.668 329.344 355.99C327.321 356.987 325.47 358.304 323.863 359.889C321.748 361.98 320.092 364.491 319.003 367.261C317.914 370.03 317.416 372.998 317.541 375.971L317.917 384.855L320.55 391.695H379.09C379.816 390.814 380.447 389.859 380.971 388.844C381.963 386.875 382.486 384.703 382.499 382.497C382.511 380.291 382.013 378.113 381.043 376.133Z"
            fill="#3F3D56" />
        <path
            d="M379.609 364.353C378.654 362.278 377.157 360.501 375.275 359.208C373.917 358.276 372.395 357.613 370.788 357.253C370.146 357.112 369.493 357.019 368.837 356.975C367.543 356.887 366.245 356.999 364.985 357.307C363.106 357.775 361.357 358.665 359.871 359.909C358.385 361.153 357.201 362.719 356.408 364.488C355.616 366.257 355.235 368.184 355.295 370.122C355.355 372.06 355.855 373.959 356.756 375.675L364.807 390.933L365.209 391.695H392.246L379.609 364.353Z"
            fill="#3F3D56" />
        <path
            d="M335.362 356.402C334.095 355.757 332.731 355.326 331.323 355.129C330.276 354.979 329.214 354.964 328.162 355.084C325.487 355.387 322.976 356.529 320.988 358.347C319 360.165 317.637 362.565 317.093 365.205L311.64 391.695H332.971L336.956 390.063L341.918 371.005C342.639 368.187 342.384 365.208 341.193 362.555C340.002 359.902 337.946 357.732 335.362 356.402Z"
            fill="#3F3D56" />
        <path
            d="M329.664 322.55C336.61 321.992 342.377 315.046 341.655 308.108C341.573 310.967 342.545 313.757 344.384 315.947C346.224 318.136 348.803 319.572 351.632 319.982C354.818 320.333 358.311 319.368 361.084 320.977C364.156 322.759 365.139 327.087 368.339 328.626C371.431 330.114 375.358 328.085 376.885 325.011C378.413 321.936 378.038 318.242 377.026 314.962C375.582 310.283 372.953 306.057 369.395 302.697C365.837 299.336 361.47 296.955 356.72 295.784C351.97 294.613 346.998 294.692 342.288 296.015C337.578 297.337 333.29 299.857 329.841 303.33C326.92 306.271 324.601 310.019 324.225 314.149C323.849 318.278 325.763 322.759 329.468 324.614L329.664 322.55Z"
            fill="#2F2E41" />
        <path
            d="M561.677 362.112H443.468C441.568 362.112 439.745 361.356 438.402 360.011C437.058 358.667 436.303 356.842 436.303 354.94C436.303 353.038 437.058 351.214 438.402 349.869C439.745 348.524 441.568 347.769 443.468 347.769H561.677C563.577 347.769 565.399 348.524 566.742 349.869C568.086 351.214 568.841 353.038 568.841 354.94C568.841 356.842 568.086 358.667 566.742 360.011C565.399 361.356 563.577 362.112 561.677 362.112Z"
            fill="#E6E6E6" />
        <path
            d="M507.945 331.633H443.468C441.568 331.633 439.745 330.877 438.402 329.532C437.058 328.187 436.303 326.363 436.303 324.461C436.303 322.559 437.058 320.735 438.402 319.39C439.745 318.045 441.568 317.29 443.468 317.29H507.945C509.845 317.29 511.668 318.045 513.011 319.39C514.355 320.735 515.109 322.559 515.109 324.461C515.109 326.363 514.355 328.187 513.011 329.532C511.668 330.877 509.845 331.633 507.945 331.633Z"
            fill="#2DB487" />
        <path
            d="M542.542 384.007C536.284 384.019 530.287 386.515 525.867 390.948C521.446 395.382 518.963 401.39 518.963 407.653C518.963 413.917 521.446 419.925 525.867 424.359C530.287 428.792 536.284 431.288 542.542 431.3C548.799 431.288 554.796 428.792 559.217 424.359C563.638 419.925 566.12 413.917 566.12 407.654C566.12 401.39 563.638 395.382 559.217 390.948C554.796 386.515 548.799 384.019 542.542 384.007Z"
            fill="#2DB487" />
        <path
            d="M540.301 417.474C539.679 417.475 539.074 417.274 538.576 416.9L538.545 416.877L532.049 411.903C531.443 411.436 531.046 410.747 530.947 409.988C530.847 409.229 531.053 408.461 531.518 407.853C531.983 407.246 532.671 406.848 533.429 406.747C534.187 406.646 534.954 406.851 535.562 407.316L539.77 410.546L549.713 397.561C549.943 397.26 550.231 397.007 550.559 396.817C550.887 396.628 551.249 396.504 551.625 396.455C552.001 396.405 552.382 396.43 552.748 396.528C553.114 396.626 553.458 396.795 553.758 397.026L553.759 397.027L553.698 397.112L553.761 397.027C554.368 397.493 554.765 398.182 554.865 398.941C554.965 399.701 554.76 400.469 554.295 401.077L542.6 416.344C542.329 416.695 541.981 416.98 541.583 417.175C541.185 417.371 540.747 417.472 540.304 417.471L540.301 417.474Z"
            fill="white" />
        <path
            d="M532.24 153.644C529.858 153.644 527.472 152.775 525.598 151.012L480.004 108.216C476.085 104.544 475.886 98.3858 479.558 94.4659C483.22 90.5318 489.369 90.337 493.287 94.0193L538.881 136.815C542.8 140.488 542.999 146.645 539.327 150.565C537.416 152.613 534.83 153.644 532.24 153.644Z"
            fill="#2DB487" />
    </g>
    <circle cx="50.8444" cy="448.356" r="30.8148" fill="#5DD5AD" />
    <defs>
        <clipPath id="clip0_135_224">
            <rect width="804.267" height="357.452" fill="white"
                transform="translate(28.5037 90.1333)" />
        </clipPath>
    </defs>
</svg>