<svg width="687" height="377" viewBox="0 0 687 377" fill="none" xmlns="http://www.w3.org/2000/svg">
    <path
        d="M532.874 0C549.594 0 565.63 6.65804 577.453 18.5094C589.276 30.3608 595.918 46.4347 595.918 63.195C595.918 79.9554 589.276 96.0293 577.453 107.881C565.63 119.732 549.594 126.39 532.874 126.39H63.044C46.3237 126.39 30.2882 119.732 18.4651 107.881C6.64215 96.0293 6.10352e-05 79.9554 6.10352e-05 63.195C6.10352e-05 46.4347 6.64215 30.3608 18.4651 18.5094C30.2882 6.65804 46.3237 0 63.044 0H532.874Z"
        fill="#E5E5E5" />
    <path
        d="M532.876 12.7886C546.212 12.7886 559.002 18.0992 568.433 27.5521C577.863 37.005 583.161 49.8259 583.161 63.1943C583.161 76.5628 577.863 89.3836 568.433 98.8365C559.002 108.289 546.212 113.6 532.876 113.6H63.0486C49.7122 113.6 36.9219 108.289 27.4916 98.8365C18.0613 89.3836 12.7634 76.5628 12.7634 63.1943C12.7634 49.8259 18.0613 37.005 27.4916 27.5521C36.9219 18.0992 49.7122 12.7886 63.0486 12.7886H532.876Z"
        fill="white" />
    <path
        d="M429.096 93.3349H522.574C522.874 93.3427 523.173 93.29 523.453 93.1801C523.733 93.0702 523.988 92.9052 524.204 92.6948C524.419 92.4845 524.59 92.233 524.707 91.9553C524.824 91.6776 524.884 91.3792 524.884 91.0778C524.884 90.7764 524.824 90.4781 524.707 90.2003C524.59 89.9226 524.419 89.6712 524.204 89.4608C523.988 89.2504 523.733 89.0854 523.453 88.9755C523.173 88.8656 522.874 88.813 522.574 88.8208H429.096C428.508 88.8361 427.95 89.0805 427.541 89.5021C427.131 89.9237 426.901 90.4891 426.901 91.0778C426.901 91.6665 427.131 92.2319 427.541 92.6535C427.95 93.0751 428.508 93.3196 429.096 93.3349Z"
        fill="#2DB487" />
    <path
        d="M310.513 94.0865H403.991C404.588 94.0865 405.161 93.8488 405.583 93.4255C406.005 93.0022 406.243 92.4282 406.243 91.8296C406.243 91.231 406.005 90.6569 405.583 90.2336C405.161 89.8103 404.588 89.5725 403.991 89.5725H310.513C309.916 89.5725 309.343 89.8103 308.921 90.2336C308.499 90.6569 308.261 91.231 308.261 91.8296C308.261 92.4282 308.499 93.0022 308.921 93.4255C309.343 93.8488 309.916 94.0865 310.513 94.0865Z"
        fill="#2DB487" />
    <path
        d="M191.93 94.8402H285.408C285.996 94.825 286.554 94.5805 286.963 94.1589C287.373 93.7372 287.603 93.1719 287.603 92.5832C287.603 91.9945 287.373 91.4291 286.963 91.0075C286.554 90.5859 285.996 90.3414 285.408 90.3262H191.93C191.333 90.3262 190.761 90.564 190.338 90.9873C189.916 91.4105 189.679 91.9846 189.679 92.5832C189.679 93.1818 189.916 93.7559 190.338 94.1791C190.761 94.6024 191.333 94.8402 191.93 94.8402Z"
        fill="#2DB487" />
    <path
        d="M73.3482 95.5924H166.826C167.423 95.5924 167.996 95.3546 168.418 94.9313C168.841 94.5081 169.078 93.934 169.078 93.3354C169.078 92.7368 168.841 92.1627 168.418 91.7394C167.996 91.3161 167.423 91.0784 166.826 91.0784H73.3482C72.7611 91.0936 72.2032 91.3381 71.7933 91.7597C71.3835 92.1813 71.1541 92.7467 71.1541 93.3354C71.1541 93.924 71.3835 94.4894 71.7933 94.9111C72.2032 95.3327 72.7611 95.5772 73.3482 95.5924Z"
        fill="#2DB487" />
    <path
        d="M476.04 72.5638C466.445 72.5638 458.666 64.7663 458.666 55.1477C458.666 45.5291 466.445 37.7317 476.04 37.7317C485.636 37.7317 493.415 45.5291 493.415 55.1477C493.415 64.7663 485.636 72.5638 476.04 72.5638Z"
        fill="#2DB487" />
    <path
        d="M356.737 72.5638C347.142 72.5638 339.363 64.7663 339.363 55.1477C339.363 45.5291 347.142 37.7317 356.737 37.7317C366.333 37.7317 374.112 45.5291 374.112 55.1477C374.112 64.7663 366.333 72.5638 356.737 72.5638Z"
        fill="#2DB487" />
    <path
        d="M237.439 72.5638C227.843 72.5638 220.064 64.7663 220.064 55.1477C220.064 45.5291 227.843 37.7317 237.439 37.7317C247.034 37.7317 254.813 45.5291 254.813 55.1477C254.813 64.7663 247.034 72.5638 237.439 72.5638Z"
        fill="#2DB487" />
    <path
        d="M118.143 72.5638C108.548 72.5638 100.769 64.7663 100.769 55.1477C100.769 45.5291 108.548 37.7317 118.143 37.7317C127.739 37.7317 135.518 45.5291 135.518 55.1477C135.518 64.7663 127.739 72.5638 118.143 72.5638Z"
        fill="#2DB487" />
    <path
        d="M379.018 198.574L381.312 208.516C381.312 208.516 380.546 231.458 386.665 229.163C392.784 226.869 391.253 206.987 391.253 206.987L385.9 197.045L379.018 198.574Z"
        fill="#FFB8B8" />
    <path
        d="M413.048 89.6015C421.495 89.6015 428.343 82.7539 428.343 74.3069C428.343 65.8599 421.495 59.0122 413.048 59.0122C404.601 59.0122 397.753 65.8599 397.753 74.3069C397.753 82.7539 404.601 89.6015 413.048 89.6015Z"
        fill="#9F616A" />
    <path
        d="M424.899 78.5122L426.431 100.689L407.314 102.983C407.314 102.983 407.314 84.6297 405.781 82.3354C404.249 80.0412 424.899 78.5122 424.899 78.5122Z"
        fill="#9F616A" />
    <path
        d="M399.327 108.176L382.503 107.396C382.503 107.396 377.148 108.921 373.309 123.448C369.47 137.974 368.687 161.68 368.687 161.68L377.827 204.513L389.299 202.993L384.747 161.695L392.418 134.171L399.327 108.176Z"
        fill="#E6E6E6" />
    <path
        d="M447.501 112.802L455.793 115.395C455.793 115.395 462.784 125.819 462.778 131.172C462.773 136.525 465.797 177.057 465.797 177.057L445.886 209.923L439.782 193.859L452.036 173.222L442.117 147.975L447.501 112.802Z"
        fill="#E6E6E6" />
    <path
        d="M390.871 188.25L445.852 183.413C445.852 183.413 451.285 218.075 450.519 231.84C449.754 245.605 448.987 267.017 448.987 267.017L455.105 360.313L431.398 357.254L428.339 280.018L418.401 237.958L406.931 291.488L399.28 360.313L378.632 358.019L385.515 274.664C385.515 274.664 379.4 199.721 390.871 188.25Z"
        fill="#090814" />
    <path
        d="M383.224 354.195L376.341 356.489C376.341 356.489 361.812 352.666 365.633 362.611C369.453 372.556 380.163 371.023 380.163 371.023C380.163 371.023 393.163 380.964 398.516 373.317L395.457 357.258L383.224 354.195Z"
        fill="#090814" />
    <path
        d="M439.049 354.195L432.166 356.489C432.166 356.489 417.637 352.666 421.458 362.611C425.278 372.556 435.988 371.023 435.988 371.023C435.988 371.023 448.988 380.964 454.341 373.317L451.283 357.258L439.049 354.195Z"
        fill="#090814" />
    <path
        d="M382.5 107.392L407.273 96.9269C407.273 96.9269 419.11 87.8094 426.043 94.5637L429.155 99.0212C429.155 99.0212 456.675 109.748 456.669 118.164L445.929 160.214C445.929 160.214 447.571 181.242 445.929 185.135L428.27 189.745L418.569 190.805L390.116 189.745C390.116 189.745 387.851 181.673 391.59 168.762L390.116 145.636L382.5 107.392Z"
        fill="#E6E6E6" />
    <path
        d="M423.434 84.6298C423.434 84.6298 438.066 74.1782 430.402 61.6358C425.085 52.9346 414.066 53.6233 407.816 54.8611C406.132 55.1716 404.549 55.8871 403.203 56.9459C401.857 58.0047 400.789 59.375 400.091 60.9386C399.046 63.3776 399.046 65.8158 403.226 65.8158C411.588 65.8158 407.407 72.0865 407.407 72.0865C407.407 72.0865 412.982 73.4801 411.588 78.3573C410.194 83.2344 423.434 84.6298 423.434 84.6298Z"
        fill="#090814" />
    <path
        d="M655.363 83.4021C670.982 84.0793 684.192 71.9671 684.869 56.3487C685.546 40.7304 673.434 27.5202 657.815 26.8431C642.197 26.1659 628.987 38.2781 628.31 53.8965C627.633 69.5148 639.745 82.725 655.363 83.4021Z"
        fill="#2DB487" />
    <path
        d="M655.197 74.564C657.035 74.6436 658.59 73.2185 658.669 71.3807C658.749 69.543 657.324 67.9886 655.486 67.9089C653.648 67.8292 652.094 69.2544 652.014 71.0922C651.934 72.9299 653.36 74.4843 655.197 74.564Z"
        fill="white" />
    <path
        d="M656.491 36.4993C653.982 36.4154 651.539 37.3142 649.682 39.0043C647.825 40.6945 646.701 43.0426 646.549 45.5489C646.546 45.5969 646.531 45.9345 646.512 46.376C646.484 47.0234 646.714 47.6554 647.152 48.133C647.59 48.6107 648.2 48.8948 648.847 48.9229C649.495 48.9509 650.127 48.7203 650.605 48.282C651.083 47.8436 651.367 47.2334 651.395 46.5856L651.395 46.584C651.408 46.2836 651.417 46.0757 651.417 46.063C651.452 45.2593 651.695 44.4785 652.123 43.7974C652.551 43.1162 653.149 42.5582 653.858 42.1783C654.567 41.7983 655.363 41.6095 656.167 41.6303C656.971 41.6511 657.756 41.881 658.445 42.2972C659.133 42.7133 659.701 43.3016 660.093 44.004C660.485 44.7063 660.688 45.4987 660.681 46.3031C660.674 47.1075 660.458 47.8962 660.053 48.5917C659.649 49.2871 659.071 49.8653 658.375 50.2695L658.376 50.2705C658.376 50.2705 654.805 52.3566 653.612 55.3789L653.613 55.3791C653.4 55.9996 653.277 56.6477 653.249 57.3033C653.237 57.5728 653.151 59.9314 653.099 61.8465C653.081 62.5073 653.323 63.1487 653.774 63.6322C654.225 64.1157 654.848 64.4027 655.508 64.4312C655.839 64.4455 656.169 64.3946 656.48 64.2813C656.79 64.168 657.076 63.9947 657.32 63.7711C657.564 63.5475 657.761 63.278 657.901 62.9781C658.041 62.6782 658.12 62.3537 658.134 62.0232L658.135 62.0077C658.2 60.2546 658.283 58.2135 658.289 58.0654C658.371 56.1814 660.27 54.383 661.816 53.2236C663.605 51.899 664.903 50.018 665.507 47.8757C665.637 47.4344 665.717 46.9801 665.747 46.5212C665.802 45.2601 665.608 44.0007 665.176 42.8147C664.744 41.6287 664.082 40.5394 663.229 39.6091C662.376 38.6787 661.348 37.9254 660.204 37.3923C659.06 36.8592 657.822 36.5567 656.561 36.502C656.538 36.501 656.515 36.5001 656.491 36.4993Z"
        fill="white" />
</svg>