<svg width="642" height="389" viewBox="0 0 642 389" fill="none" xmlns="http://www.w3.org/2000/svg">
    <g filter="url(#filter0_d_271_1215)">
        <path
            d="M509.083 311.159H31.6842C29.9298 311.157 28.2479 310.459 27.0074 309.216C25.7669 307.974 25.0692 306.29 25.0674 304.533V31.6942C25.069 29.9373 25.7666 28.2527 27.0072 27.0103C28.2477 25.7679 29.9297 25.0692 31.6842 25.0674H509.083C510.837 25.0692 512.519 25.7679 513.76 27.0103C515 28.2527 515.698 29.9373 515.699 31.6942V304.533C515.698 306.29 515 307.974 513.759 309.216C512.519 310.459 510.837 311.157 509.083 311.159Z"
            fill="#C9D3E3" />
        <path d="M503.354 35.5562H36.1836V299.534H503.354V35.5562Z" fill="white" />
        <path
            d="M196.789 67.9055C198.487 67.9055 200.147 68.4098 201.559 69.3546C202.971 70.2994 204.071 71.6422 204.721 73.2134C205.371 74.7845 205.541 76.5133 205.21 78.1812C204.878 79.8491 204.061 81.3812 202.86 82.5837C201.659 83.7862 200.129 84.6051 198.464 84.9369C196.798 85.2686 195.072 85.0983 193.503 84.4476C191.934 83.7968 190.593 82.6947 189.65 81.2807C188.706 79.8668 188.203 78.2044 188.203 76.5038C188.203 74.2234 189.107 72.0364 190.717 70.4239C192.328 68.8114 194.512 67.9055 196.789 67.9055Z"
            fill="#2DB487" />
        <path
            d="M233.587 67.9055C235.285 67.9055 236.945 68.4098 238.357 69.3546C239.769 70.2994 240.869 71.6422 241.519 73.2134C242.169 74.7845 242.339 76.5133 242.008 78.1812C241.676 79.8491 240.859 81.3812 239.658 82.5837C238.457 83.7862 236.927 84.6051 235.262 84.9369C233.596 85.2686 231.87 85.0983 230.301 84.4476C228.732 83.7968 227.391 82.6947 226.448 81.2807C225.504 79.8668 225 78.2044 225 76.5038C225 74.2234 225.905 72.0364 227.515 70.4239C229.125 68.8114 231.309 67.9055 233.587 67.9055Z"
            fill="#2DB487" />
        <path
            d="M307.181 67.9055C308.879 67.9055 310.539 68.4098 311.951 69.3546C313.363 70.2994 314.464 71.6422 315.114 73.2134C315.764 74.7845 315.934 76.5133 315.602 78.1812C315.271 79.8491 314.453 81.3812 313.253 82.5837C312.052 83.7862 310.522 84.6051 308.856 84.9369C307.191 85.2686 305.464 85.0983 303.896 84.4476C302.327 83.7968 300.986 82.6947 300.042 81.2807C299.099 79.8668 298.595 78.2044 298.595 76.5038C298.595 74.2234 299.5 72.0364 301.11 70.4239C302.72 68.8114 304.904 67.9055 307.181 67.9055Z"
            fill="#E6E6E6" />
        <path
            d="M343.979 67.9055C345.677 67.9055 347.337 68.4098 348.749 69.3546C350.161 70.2994 351.261 71.6422 351.911 73.2134C352.561 74.7845 352.731 76.5133 352.4 78.1812C352.068 79.8491 351.251 81.3812 350.05 82.5837C348.849 83.7862 347.319 84.6051 345.654 84.9369C343.988 85.2686 342.262 85.0983 340.693 84.4476C339.124 83.7968 337.783 82.6947 336.84 81.2807C335.896 79.8668 335.393 78.2044 335.393 76.5038C335.393 74.2234 336.297 72.0364 337.907 70.4239C339.518 68.8114 341.701 67.9055 343.979 67.9055Z"
            fill="#E6E6E6" />
        <path d="M195.562 74.0474H278.303V78.9607H195.562V74.0474Z" fill="#2DB487" />
        <path d="M275.903 74.0474H345.818V78.9607H275.903V74.0474Z" fill="#E6E6E6" />
        <path
            d="M270.384 67.9055C272.082 67.9055 273.742 68.4098 275.154 69.3546C276.566 70.2994 277.667 71.6422 278.316 73.2134C278.966 74.7845 279.136 76.5133 278.805 78.1812C278.474 79.8491 277.656 81.3812 276.455 82.5837C275.254 83.7862 273.725 84.6051 272.059 84.9369C270.393 85.2686 268.667 85.0983 267.098 84.4476C265.529 83.7968 264.188 82.6947 263.245 81.2807C262.301 79.8668 261.798 78.2044 261.798 76.5038C261.798 74.2234 262.702 72.0364 264.313 70.4239C265.923 68.8114 268.107 67.9055 270.384 67.9055Z"
            fill="#2DB487" />
        <path
            d="M185.75 114.582H207.828C208.804 114.582 209.74 114.97 210.43 115.661C211.12 116.352 211.508 117.29 211.508 118.267C211.508 119.244 211.12 120.182 210.43 120.873C209.74 121.564 208.804 121.952 207.828 121.952H185.75C184.774 121.952 183.838 121.564 183.148 120.873C182.458 120.182 182.07 119.244 182.07 118.267C182.07 117.29 182.458 116.352 183.148 115.661C183.838 114.97 184.774 114.582 185.75 114.582Z"
            fill="#E6E6E6" />
        <path
            d="M190.656 124.409H345.205C347.482 124.409 349.666 125.315 351.276 126.927C352.886 128.54 353.791 130.727 353.791 133.007C353.791 135.287 352.886 137.474 351.276 139.087C349.666 140.699 347.482 141.605 345.205 141.605H190.656C188.379 141.605 186.195 140.699 184.585 139.087C182.974 137.474 182.07 135.287 182.07 133.007C182.07 130.727 182.974 128.54 184.585 126.927C186.195 125.315 188.379 124.409 190.656 124.409Z"
            fill="#E6E6E6" />
        <path
            d="M185.75 156.345H207.828C208.804 156.345 209.74 156.733 210.43 157.425C211.12 158.116 211.508 159.053 211.508 160.03C211.508 161.008 211.12 161.945 210.43 162.636C209.74 163.327 208.804 163.715 207.828 163.715H185.75C184.774 163.715 183.838 163.327 183.148 162.636C182.458 161.945 182.07 161.008 182.07 160.03C182.07 159.053 182.458 158.116 183.148 157.425C183.838 156.733 184.774 156.345 185.75 156.345Z"
            fill="#E6E6E6" />
        <path
            d="M190.656 166.172H345.205C347.482 166.172 349.666 167.078 351.276 168.69C352.886 170.302 353.791 172.49 353.791 174.77C353.791 177.05 352.886 179.237 351.276 180.85C349.666 182.462 347.482 183.368 345.205 183.368H190.656C188.379 183.368 186.195 182.462 184.585 180.85C182.974 179.237 182.07 177.05 182.07 174.77C182.07 172.49 182.974 170.302 184.585 168.69C186.195 167.078 188.379 166.172 190.656 166.172Z"
            fill="#E6E6E6" />
        <path
            d="M185.75 198.108H207.828C208.804 198.108 209.74 198.497 210.43 199.188C211.12 199.879 211.508 200.816 211.508 201.793C211.508 202.771 211.12 203.708 210.43 204.399C209.74 205.09 208.804 205.478 207.828 205.478H185.75C184.774 205.478 183.838 205.09 183.148 204.399C182.458 203.708 182.07 202.771 182.07 201.793C182.07 200.816 182.458 199.879 183.148 199.188C183.838 198.497 184.774 198.108 185.75 198.108Z"
            fill="#E6E6E6" />
        <path
            d="M190.656 207.935H345.205C347.482 207.935 349.666 208.841 351.276 210.453C352.886 212.066 353.791 214.253 353.791 216.533C353.791 218.814 352.886 221.001 351.276 222.613C349.666 224.226 347.482 225.132 345.205 225.132H190.656C188.379 225.132 186.195 224.226 184.585 222.613C182.974 221.001 182.07 218.814 182.07 216.533C182.07 214.253 182.974 212.066 184.585 210.453C186.195 208.841 188.379 207.935 190.656 207.935Z"
            fill="#E6E6E6" />
        <path
            d="M190.656 249.698H345.205C347.482 249.698 349.666 250.604 351.276 252.216C352.886 253.829 353.791 256.016 353.791 258.296C353.791 260.577 352.886 262.764 351.276 264.376C349.666 265.989 347.482 266.895 345.205 266.895H190.656C188.379 266.895 186.195 265.989 184.585 264.376C182.974 262.764 182.07 260.577 182.07 258.296C182.07 256.016 182.974 253.829 184.585 252.216C186.195 250.604 188.379 249.698 190.656 249.698Z"
            fill="#2DB487" />
    </g>
    <g filter="url(#filter1_d_271_1215)">
        <path
            d="M503.065 354.725C561.213 354.725 608.351 306.88 608.351 247.86C608.351 188.84 561.213 140.994 503.065 140.994C444.917 140.994 397.779 188.84 397.779 247.86C397.779 306.88 444.917 354.725 503.065 354.725Z"
            fill="#2DB487" />
        <path
            d="M503.065 136.782C563.598 136.783 612.562 186.573 612.562 247.86C612.562 309.146 563.598 358.936 503.065 358.936C442.533 358.936 393.567 309.146 393.567 247.86C393.567 186.573 442.533 136.782 503.065 136.782Z"
            stroke="#C9D3E3" stroke-width="8.42287" />
    </g>
    <path
        d="M488.522 304.566C486.702 304.566 484.906 304.141 483.277 303.324C481.649 302.506 480.232 301.32 479.14 299.857L450.375 261.368C449.45 260.132 448.777 258.725 448.394 257.227C448.011 255.729 447.926 254.171 448.143 252.64C448.361 251.11 448.877 249.637 449.662 248.307C450.447 246.976 451.485 245.814 452.718 244.887C453.95 243.959 455.353 243.284 456.845 242.901C458.338 242.517 459.891 242.433 461.416 242.652C462.941 242.871 464.408 243.389 465.734 244.177C467.059 244.966 468.217 246.008 469.141 247.245L487.96 272.424L536.296 199.668C538.022 197.072 540.705 195.271 543.754 194.66C546.803 194.048 549.97 194.677 552.557 196.408C555.145 198.139 556.941 200.831 557.552 203.89C558.163 206.95 557.537 210.128 555.814 212.726L498.282 299.325C497.242 300.891 495.842 302.184 494.201 303.095C492.559 304.007 490.724 304.51 488.849 304.563C488.74 304.564 488.631 304.566 488.522 304.566Z"
        fill="white" />
    <path d="M570.238 348.597H564.064L561.127 324.699L570.24 324.7L570.238 348.597Z" fill="#FFB6B6" />
    <path
        d="M570.456 355.061L551.47 355.06V354.819C551.47 352.853 552.249 350.966 553.634 349.576C555.02 348.185 556.9 347.404 558.86 347.404L562.328 344.763L568.798 347.404L570.456 347.404L570.456 355.061Z"
        fill="#2F2E41" />
    <path d="M543.396 318.98L537.694 321.354L525.857 300.408L534.275 296.906L543.396 318.98Z"
        fill="#FFB6B6" />
    <path
        d="M546.065 324.867L528.527 332.165L528.435 331.942C527.684 330.126 527.684 328.084 528.433 326.267C529.182 324.45 530.62 323.005 532.43 322.252L534.626 318.48L541.611 318.431L543.142 317.794L546.065 324.867Z"
        fill="#2F2E41" />
    <path
        d="M577.298 212.654L533.482 217.248L527.621 237.057L507.324 269.791C507.324 269.791 521.487 293.712 520.157 293.452C518.827 293.191 521.485 299.712 523.347 299.333C525.209 298.955 527.145 303.207 525.858 303.963C524.571 304.718 529.735 311.11 529.735 311.11L537.627 304.002C539.306 291.294 537.278 279.985 530.051 270.635L552.664 246.138L556.951 244.353L560.355 335.256L572.944 335.463C576.418 317.531 578.163 301.392 575.447 289.879C575.447 289.879 575.838 255.291 577.326 255.67C578.815 256.048 577.553 251.542 577.553 251.542C577.553 251.542 576.249 247.705 577.851 246.113C579.453 244.521 578.453 235.157 578.453 235.157C581.1 226.296 580.303 218.98 577.298 212.654Z"
        fill="#2F2E41" />
    <path
        d="M543.608 139.552L555.721 136.402L561.375 128.576L574.803 130.233L577.661 140.907L587.221 146.475C587.221 146.475 581.937 202.556 583.194 205.636C584.451 208.715 588.957 208.461 585.108 212.431C581.26 216.4 580.75 214.801 581.643 219.123C582.536 223.444 589.046 228.018 581.643 227.973C574.24 227.927 529.568 227.287 530.845 222.164C532.121 217.04 532.101 218.341 534.025 215.129C535.95 211.917 537.245 213.712 536.598 208.972C535.95 204.232 536.588 201.03 536.588 198.469C536.588 195.907 538.726 172.629 538.726 172.629L543.608 139.552Z"
        fill="#E6E6E6" />
    <path
        d="M568.056 127.13C575.915 127.13 582.285 120.737 582.285 112.85C582.285 104.964 575.915 98.5708 568.056 98.5708C560.197 98.5708 553.826 104.964 553.826 112.85C553.826 120.737 560.197 127.13 568.056 127.13Z"
        fill="#FFB6B6" />
    <path
        d="M553.145 104.208C554.394 105.221 554.108 110.149 555.501 109.346C556.893 108.543 557.183 107.104 558.786 107.089C560.093 107.162 561.326 107.722 562.242 108.659C562.413 108.814 562.575 108.976 562.733 109.136C562.877 109.086 563.02 109.04 563.169 109.002C564.294 108.727 565.481 108.894 566.485 109.471C565.558 109.537 564.674 109.895 563.96 110.493C564.266 110.837 564.576 111.183 564.903 111.503C567.628 114.183 573.216 111.329 576.973 110.685C573.844 114.113 574.461 116.027 575.239 120.61L575.242 120.861C575.402 119.804 578.775 119.856 578.219 121.259C577.521 122.644 576.647 123.933 575.619 125.094C580.215 121.899 583.926 117.495 584.746 112.175C584.914 111.056 585.242 109.915 584.925 108.824C584.79 108.273 584.477 107.782 584.034 107.428C583.592 107.074 583.045 106.877 582.479 106.868C582.991 105.236 583.053 103.495 582.658 101.831C582.263 100.166 581.426 98.6405 580.235 97.4154C579.045 96.1904 577.546 95.3119 575.898 94.8734C574.25 94.4349 572.515 94.4527 570.876 94.9249C569.381 95.4581 567.923 96.0896 566.512 96.8154C565.086 97.544 563.473 97.8182 561.889 97.6011C560.902 97.3965 559.902 96.8835 558.934 97.174C557.813 97.5114 557.331 98.6997 556.881 99.8468C557.725 100.156 558.458 100.711 558.986 101.44C558.114 101.117 557.162 101.078 556.267 101.329C556.25 101.332 556.234 101.336 556.219 101.342C555.203 103.167 555.145 103.615 553.145 104.208Z"
        fill="#2F2E41" />
    <path
        d="M557.837 132.577C550.549 131.988 543.894 137.581 540.86 144.257C537.826 150.933 537.627 158.507 537.48 165.843L537.022 188.647C536.954 192.021 536.887 195.396 536.719 198.767C536.633 202.047 536.222 205.311 535.492 208.509C534.006 214.378 530.737 219.608 527.516 224.729C535.763 227.231 544.149 229.241 552.632 230.749C556.869 216.998 561.154 202.853 560.112 188.498C559.561 180.902 557.525 173.486 556.751 165.91C555.655 155.18 557.108 144.371 558.558 133.683"
        fill="#3F3D56" />
    <path
        d="M575.529 133.859C582.748 135.024 587.889 142.043 589.257 149.251C590.624 156.459 589.025 163.864 587.432 171.025C585.782 178.445 584.131 185.865 582.48 193.285C581.748 196.58 581.015 199.874 580.38 203.189C579.763 206.408 582.347 210.538 582.376 213.817C582.431 219.872 581.259 224.859 583.176 230.601C574.573 231.066 565.951 231.02 557.354 230.463C556.492 216.097 555.678 201.335 560.086 187.639C562.419 180.392 566.152 173.673 568.696 166.498C572.3 156.336 573.447 145.49 574.568 134.762"
        fill="#3F3D56" />
    <path
        d="M580.342 237.382C579.806 236.444 579.655 235.333 579.923 234.286C580.19 233.239 580.854 232.338 581.774 231.774C581.962 231.663 582.16 231.567 582.364 231.488L581.444 200.034L591.416 197.487L587.613 234.132C587.873 235.008 587.837 235.946 587.511 236.799C587.184 237.652 586.585 238.373 585.807 238.849C585.362 239.115 584.869 239.291 584.356 239.366C583.844 239.441 583.321 239.414 582.819 239.287C582.316 239.159 581.844 238.934 581.428 238.623C581.012 238.312 580.662 237.922 580.396 237.476C580.378 237.445 580.36 237.413 580.342 237.382Z"
        fill="#FFB6B6" />
    <path
        d="M579.614 146.425C579.614 146.425 586.575 140.518 592.432 152.329C598.289 164.14 595.016 191.123 594.191 192.563C593.367 194.004 592.864 191.997 593.315 195.836C593.683 198.958 591.499 198.568 592.282 199.234C594.348 200.991 588.564 201.191 591.534 202.738C594.505 204.286 581.21 204.576 581.21 204.576C581.21 204.576 579.602 203.424 580.719 199.078C581.346 196.637 582.916 195.744 581.241 194.615C579.566 193.485 582.972 189.993 582.974 189.227C582.976 188.461 577.664 171.704 577.664 171.704L579.614 146.425Z"
        fill="#3F3D56" />
    <path
        d="M549.685 141.205C549.685 141.205 543.061 134.921 536.562 146.39C530.063 157.858 531.845 184.981 532.589 186.465C533.333 187.948 533.946 185.973 533.284 189.781C532.745 192.878 534.947 192.609 534.128 193.231C531.969 194.87 537.733 195.391 534.682 196.772C531.63 198.152 544.889 199.179 544.889 199.179C544.889 199.179 546.558 198.118 545.682 193.716C545.19 191.245 543.672 190.266 545.406 189.231C547.141 188.196 543.933 184.521 543.973 183.756C544.013 182.991 550.24 166.553 550.24 166.553L549.685 141.205Z"
        fill="#3F3D56" />
    <path
        d="M520.967 287.23C519.168 287.23 517.394 286.811 515.785 286.007C514.176 285.202 512.777 284.033 511.698 282.594L483.276 244.697C482.362 243.48 481.697 242.094 481.319 240.62C480.941 239.145 480.857 237.611 481.072 236.104C481.287 234.597 481.796 233.147 482.572 231.837C483.347 230.527 484.373 229.382 485.591 228.469C486.809 227.556 488.195 226.891 489.669 226.514C491.144 226.136 492.679 226.053 494.186 226.269C495.692 226.484 497.142 226.995 498.452 227.771C499.761 228.547 500.905 229.573 501.818 230.792L520.412 255.583L568.169 183.946C569.013 182.68 570.099 181.593 571.363 180.746C572.627 179.899 574.046 179.309 575.539 179.011C577.031 178.712 578.567 178.711 580.06 179.006C581.553 179.302 582.973 179.888 584.24 180.732C585.506 181.576 586.593 182.662 587.44 183.926C588.287 185.191 588.876 186.61 589.175 188.102C589.473 189.594 589.475 191.131 589.18 192.624C588.884 194.117 588.298 195.537 587.454 196.803L530.611 282.069C529.582 283.612 528.199 284.885 526.578 285.782C524.956 286.679 523.143 287.175 521.29 287.227C521.182 287.228 521.075 287.23 520.967 287.23Z"
        fill="#C9D3E3" />
    <path
        d="M543.94 231.918C544.527 231.011 544.739 229.911 544.529 228.85C544.32 227.79 543.707 226.853 542.82 226.24C542.638 226.118 542.446 226.011 542.246 225.921L544.897 194.567L535.081 191.47L536.859 228.27C536.551 229.13 536.536 230.069 536.815 230.939C537.094 231.809 537.652 232.561 538.403 233.079C538.832 233.37 539.315 233.573 539.823 233.676C540.331 233.78 540.854 233.782 541.363 233.683C541.871 233.583 542.356 233.384 542.788 233.097C543.22 232.81 543.591 232.44 543.881 232.009C543.901 231.979 543.921 231.948 543.94 231.918Z"
        fill="#FFB6B6" />
    <defs>
        <filter id="filter0_d_271_1215" x="9.36985e-05" y="9.36985e-05" width="540.766"
            height="336.226" filterUnits="userSpaceOnUse" color-interpolation-filters="sRGB">
            <feFlood flood-opacity="0" result="BackgroundImageFix" />
            <feColorMatrix in="SourceAlpha" type="matrix"
                values="0 0 0 0 0 0 0 0 0 0 0 0 0 0 0 0 0 0 127 0" result="hardAlpha" />
            <feMorphology radius="2.27884" operator="dilate" in="SourceAlpha"
                result="effect1_dropShadow_271_1215" />
            <feOffset />
            <feGaussianBlur stdDeviation="11.3942" />
            <feComposite in2="hardAlpha" operator="out" />
            <feColorMatrix type="matrix"
                values="0 0 0 0 0.336538 0 0 0 0 0.336538 0 0 0 0 0.336538 0 0 0 0.05 0" />
            <feBlend mode="normal" in2="BackgroundImageFix" result="effect1_dropShadow_271_1215" />
            <feBlend mode="normal" in="SourceGraphic" in2="effect1_dropShadow_271_1215"
                result="shape" />
        </filter>
        <filter id="filter1_d_271_1215" x="364.289" y="107.504" width="277.552" height="280.711"
            filterUnits="userSpaceOnUse" color-interpolation-filters="sRGB">
            <feFlood flood-opacity="0" result="BackgroundImageFix" />
            <feColorMatrix in="SourceAlpha" type="matrix"
                values="0 0 0 0 0 0 0 0 0 0 0 0 0 0 0 0 0 0 127 0" result="hardAlpha" />
            <feMorphology radius="2.27884" operator="dilate" in="SourceAlpha"
                result="effect1_dropShadow_271_1215" />
            <feOffset />
            <feGaussianBlur stdDeviation="11.3942" />
            <feComposite in2="hardAlpha" operator="out" />
            <feColorMatrix type="matrix"
                values="0 0 0 0 0.336538 0 0 0 0 0.336538 0 0 0 0 0.336538 0 0 0 0.05 0" />
            <feBlend mode="normal" in2="BackgroundImageFix" result="effect1_dropShadow_271_1215" />
            <feBlend mode="normal" in="SourceGraphic" in2="effect1_dropShadow_271_1215"
                result="shape" />
        </filter>
    </defs>
</svg>