<svg width="794" height="495" viewBox="0 0 794 495" fill="none" xmlns="http://www.w3.org/2000/svg">
    <g clip-path="url(#clip0_135_188)">
        <path
            d="M488.231 350.612H298.1C282.118 350.612 269.117 337.601 269.117 321.607V131.332C269.117 115.339 282.118 102.327 298.1 102.327H488.231C504.212 102.327 517.214 115.339 517.214 131.332V321.607C517.214 337.601 504.212 350.612 488.231 350.612ZM298.1 106.968C284.654 106.968 273.754 117.876 273.754 131.332V321.607C273.754 335.063 284.654 345.971 298.1 345.971H431.282C476.18 345.971 512.577 309.547 512.577 264.615V131.332C512.577 117.876 501.677 106.968 488.231 106.968L298.1 106.968Z"
            fill="#C9D3E3" />
        <path
            d="M318.597 126.754C309.598 126.754 302.278 134.08 302.278 143.086V168.649C302.278 177.654 309.598 184.98 318.597 184.98H344.14C353.139 184.98 360.459 177.654 360.459 168.649V143.086C360.459 134.08 353.139 126.754 344.14 126.754H318.597Z"
            fill="#C9D3E3" />
        <path
            d="M318.597 198.716C309.598 198.716 302.278 206.042 302.278 215.048V240.61C302.278 249.616 309.598 256.942 318.597 256.942H344.14C353.139 256.942 360.459 249.616 360.459 240.61V215.048C360.459 206.042 353.139 198.716 344.14 198.716H318.597Z"
            fill="#C9D3E3" />
        <path
            d="M318.597 270.678C309.598 270.678 302.278 278.004 302.278 287.01V312.572C302.278 321.578 309.598 328.904 318.597 328.904H344.14C353.139 328.904 360.459 321.578 360.459 312.572V287.01C360.459 278.004 353.139 270.678 344.14 270.678H318.597Z"
            fill="#C9D3E3" />
        <path
            d="M335.536 64.3875C324.197 64.3875 314.973 73.6185 314.973 84.9657V117.175C314.973 128.522 324.197 137.754 335.536 137.754H367.721C379.06 137.754 388.284 128.522 388.284 117.175V84.9657C388.284 73.6185 379.06 64.3875 367.721 64.3875H335.536Z"
            fill="#2DB487" />
        <path
            d="M441.498 154.4C430.16 154.4 420.936 163.631 420.936 174.978V207.187C420.936 218.535 430.16 227.766 441.498 227.766H473.683C485.022 227.766 494.246 218.535 494.246 207.187V174.978C494.246 163.631 485.022 154.4 473.683 154.4H441.498Z"
            fill="#2DB487" />
        <path d="M395.431 478.602L388.892 478.546L385.998 452.719L395.648 452.8L395.431 478.602Z"
            fill="#A0616A" />
        <path
            d="M374.487 489.007C374.473 490.617 375.771 491.943 377.386 491.958L390.386 492.066L392.662 487.45L393.497 492.09L398.403 492.134L397.164 475.585L395.457 475.471L388.496 474.991L386.251 474.84L386.211 479.523L375.768 486.611C374.974 487.152 374.495 488.046 374.487 489.007Z"
            fill="#2F2E41" />
        <path d="M428.698 478.602L422.16 478.546L419.265 452.719L428.915 452.8L428.698 478.602Z"
            fill="#A0616A" />
        <path
            d="M407.755 489.007C407.741 490.617 409.038 491.943 410.653 491.958L423.653 492.066L425.929 487.45L426.765 492.09L431.67 492.134L430.432 475.585L428.725 475.471L421.764 474.991L419.518 474.84L419.479 479.523L409.036 486.611C408.241 487.152 407.763 488.046 407.755 489.007Z"
            fill="#2F2E41" />
        <path
            d="M369.773 269.788L396.277 270.625L421.386 276.209C421.386 276.209 418.875 279.281 427.244 287.656C427.244 287.656 438.404 307.2 430.592 326.185L427.244 402.127C427.244 402.127 437.005 455.66 429.547 472.698L419.691 473.315L403.012 402.745L394.882 326.744L390.976 401.568C390.976 401.568 405.918 452.927 396.483 473.315L385.808 472.698L367.542 401.568C367.542 401.568 359.73 319.485 360.846 303.85C361.962 288.215 369.773 269.788 369.773 269.788Z"
            fill="#2F2E41" />
        <path
            d="M458.778 149.788C455.155 150.727 452.979 154.428 453.917 158.054C454.347 159.715 455.36 161.067 456.676 161.96L456.675 161.969L456.161 174.428L465.688 178.84L466.449 159.668L466.382 159.67C467.208 158.197 467.494 156.418 467.037 154.654C466.099 151.028 462.401 148.85 458.778 149.788Z"
            fill="#A0616A" />
        <path
            d="M405.532 194.253C403.531 192.268 402.37 189.576 402.326 186.649C402.268 182.723 404.234 179.159 407.586 177.116C411.445 174.764 416.272 175.002 419.882 177.722L449.798 200.264L455.129 167.791L466.573 171.477L463.843 213.762C463.651 216.72 461.981 219.326 459.374 220.732C456.767 222.139 453.674 222.104 451.1 220.638L407.867 196.022C406.998 195.528 406.216 194.931 405.532 194.253Z"
            fill="#3F3D56" />
        <path
            d="M359.915 131.625C361.828 134.844 360.77 139.006 357.553 140.919C356.079 141.796 354.409 142.043 352.846 141.749L352.84 141.756L344.44 150.966L334.57 147.387L347.518 133.236L347.564 133.284C348.013 131.656 349.062 130.192 350.628 129.26C353.845 127.347 358.003 128.405 359.915 131.625Z"
            fill="#A0616A" />
        <path
            d="M363.544 200.329L315.524 187.348C312.665 186.575 310.444 184.421 309.582 181.585C308.72 178.75 309.367 175.722 311.312 173.487L339.121 141.535L349.842 146.98L330.782 173.797L367.886 178.868C372.363 179.48 375.958 182.711 377.044 187.101C377.987 190.913 376.876 194.829 374.072 197.577C371.982 199.625 369.264 200.718 366.446 200.718C365.483 200.718 364.508 200.59 363.544 200.329Z"
            fill="#3F3D56" />
        <path
            d="M432.005 280.96L364.855 284.043C363.011 281.24 363.51 277.026 366.093 271.748C375.845 251.822 368.438 214.126 363.456 194.498C362.058 188.991 365.811 183.516 371.461 182.95L377.792 182.317L383.645 164.438H404.142L412.645 174.16L427.076 182.933C424.45 210.011 413.257 248.246 429.202 267.421C432.69 271.615 433.678 276.15 432.005 280.96Z"
            fill="#3F3D56" />
        <path
            d="M391.286 164.85C402.312 164.85 411.251 155.905 411.251 144.87C411.251 133.836 402.312 124.89 391.286 124.89C380.259 124.89 371.321 133.836 371.321 144.87C371.321 155.905 380.259 164.85 391.286 164.85Z"
            fill="#A0616A" />
        <path
            d="M413.878 132.081C416.656 121.946 386.381 113.255 380.498 121.417C379.68 120.257 376.657 119.552 375.27 119.908C373.882 120.264 372.716 121.153 371.578 122.015C370.013 123.218 368.391 124.464 367.43 126.194C366.463 127.916 366.314 130.266 367.615 131.761C368.647 132.95 370.459 139.267 372.01 139.58C373.091 139.801 374.002 139.979 374.784 140.107C375.481 139.089 377.259 137.81 377.131 136.579C378.184 137.276 377.799 138.504 377.587 139.758C376.88 143.936 360.956 176.272 370.077 166.743C370.98 167.277 372.097 167.775 373.384 168.231C375.568 164.935 377.361 161.048 378.542 156.983L378.55 157.058C378.957 160.591 381.536 163.489 384.949 164.479C398.64 168.448 409.714 162.624 413.523 152.121C412.129 149.287 411.521 149.595 411.646 149.511C413.387 148.337 415.78 149.104 416.528 151.067C416.749 151.646 416.949 152.14 417.123 152.512C419.108 145.407 421.468 146.433 413.878 132.081Z"
            fill="#2F2E41" />
        <path
            d="M404.433 124.728L403.034 117.573C402.917 116.971 402.805 116.319 403.076 115.769C403.424 115.063 404.319 114.77 405.098 114.883C405.877 114.996 406.459 115.707 407.234 115.845C409.928 116.321 413.489 113.658 414.454 120.395C414.856 123.204 419.335 123.5 420.831 125.911C422.326 128.321 422.51 131.801 420.469 133.77C418.838 135.343 416.22 135.524 414.103 134.721C411.986 133.918 410.286 132.295 408.802 130.583C407.318 128.872 405.974 127.02 404.262 125.537"
            fill="#2F2E41" />
        <path
            d="M414.944 135.61C409.481 134.847 405.757 132.858 403.876 129.701C401.414 125.568 403.063 121.017 403.135 120.825L404.29 121.255C404.274 121.297 402.778 125.463 404.941 129.08C406.624 131.894 410.046 133.681 415.114 134.389L414.944 135.61Z"
            fill="#2DB487" />
        <path
            d="M440.581 58.3009C424.521 58.3009 411.453 45.223 411.453 29.1504C411.453 13.0778 424.521 0 440.581 0C456.641 0 469.709 13.0778 469.709 29.1504C469.709 45.223 456.641 58.3009 440.581 58.3009ZM440.581 11.6602C430.944 11.6602 423.104 19.5057 423.104 29.1504C423.104 38.7951 430.944 46.6407 440.581 46.6407C450.218 46.6407 458.058 38.7951 458.058 29.1504C458.058 19.5057 450.218 11.6602 440.581 11.6602Z"
            fill="#2DB487" />
        <path
            d="M485.396 78.1109C483.969 78.1109 482.538 77.5899 481.414 76.5338L454.075 50.8934C451.725 48.6929 451.606 45.0035 453.808 42.6549C456.004 40.2979 459.69 40.1812 462.04 42.3874L489.379 68.0278C491.728 70.2283 491.848 73.9176 489.646 76.2662C488.5 77.4931 486.95 78.1109 485.396 78.1109Z"
            fill="#2DB487" />
        <path
            d="M608.957 477.947C610.937 478.071 612.032 475.608 610.534 474.173L610.384 473.58C610.404 473.532 610.424 473.485 610.444 473.437C612.447 468.657 619.235 468.69 621.222 473.477C622.984 477.726 625.229 481.982 625.781 486.475C626.029 488.458 625.917 490.478 625.478 492.424C629.608 483.395 631.782 473.535 631.782 463.619C631.782 461.128 631.646 458.637 631.367 456.152C631.138 454.119 630.822 452.099 630.413 450.097C628.203 439.277 623.416 428.971 616.511 420.363C613.192 418.547 610.424 415.708 608.752 412.306C608.151 411.079 607.68 409.759 607.458 408.414C607.835 408.464 608.882 402.707 608.597 402.354C609.123 401.554 610.066 401.157 610.64 400.377C613.5 396.497 617.439 397.174 619.496 402.447C623.889 404.665 623.932 408.346 621.236 411.885C619.521 414.137 619.285 417.183 617.78 419.594C617.935 419.792 618.096 419.985 618.251 420.183C621.09 423.827 623.545 427.744 625.615 431.859C625.03 427.285 625.894 421.776 627.367 418.225C629.043 414.178 632.184 410.77 634.951 407.272C638.274 403.07 645.088 404.904 645.674 410.23C645.679 410.282 645.685 410.334 645.69 410.385C645.279 410.617 644.877 410.864 644.483 411.124C642.24 412.608 643.016 416.088 645.673 416.499L645.734 416.508C645.585 417.989 645.331 419.458 644.959 420.902C648.509 434.638 640.846 439.641 629.906 439.865C629.664 439.989 629.429 440.113 629.187 440.231C630.296 443.354 631.181 446.558 631.837 449.806C632.426 452.675 632.835 455.575 633.064 458.488C633.349 462.163 633.324 465.856 633.014 469.525L633.033 469.395C633.819 465.354 636.011 461.58 639.194 458.965C643.936 455.067 650.635 453.632 655.75 450.498C658.213 448.99 661.368 450.939 660.939 453.796L660.918 453.933C660.156 454.243 659.413 454.602 658.695 455.005C658.284 455.237 657.881 455.484 657.488 455.744C655.245 457.228 656.02 460.708 658.678 461.119L658.738 461.128C658.781 461.134 658.818 461.14 658.862 461.147C657.555 464.251 655.734 467.133 653.456 469.618C651.236 481.609 641.705 482.747 631.509 479.255H631.503C630.388 484.113 628.76 488.861 626.667 493.384H609.39C609.328 493.192 609.272 492.994 609.216 492.802C610.814 492.901 612.424 492.808 613.997 492.517C612.715 490.943 611.433 489.356 610.151 487.782C610.12 487.751 610.096 487.72 610.071 487.689C609.421 486.884 608.764 486.084 608.114 485.279L608.114 485.278C608.073 482.804 608.37 480.339 608.957 477.947Z"
            fill="#C9D3E3" />
    </g>
    <circle cx="733.393" cy="58.5481" r="49.3037" fill="#5DD5AD" />
    <circle cx="55.4667" cy="442.193" r="30.8148" fill="#5DD5AD" />
    <defs>
        <clipPath id="clip0_135_188">
            <rect width="530.015" height="494.578" fill="white" transform="translate(130.963)" />
        </clipPath>
    </defs>
</svg>