<svg width="96" height="96" viewBox="0 0 96 96" fill="none" xmlns="http://www.w3.org/2000/svg">
    <g filter="url(#filter0_f_64_727)">
        <circle cx="48" cy="48" r="32" fill="#2DB487" fill-opacity="0.25" />
    </g>
    <path
        d="M61.8567 45.6056L63.4834 47.1912C64.1722 47.8625 64.1722 48.9481 63.4834 49.6123L49.2457 63.4965C48.5569 64.1678 47.4431 64.1678 46.7616 63.4965L32.5166 49.6123C31.8278 48.941 31.8278 47.8554 32.5166 47.1912L34.1433 45.6056C34.8395 44.9271 35.9753 44.9414 36.6567 45.6342L45.0689 54.2404V33.7141C45.0689 32.7642 45.853 32 46.8276 32H49.1724C50.147 32 50.9311 32.7642 50.9311 33.7141V54.2404L59.3433 45.6342C60.0247 44.9343 61.1605 44.92 61.8567 45.6056Z"
        fill="#161D27" />
    <defs>
        <filter id="filter0_f_64_727" x="0" y="0" width="96" height="96"
            filterUnits="userSpaceOnUse" color-interpolation-filters="sRGB">
            <feFlood flood-opacity="0" result="BackgroundImageFix" />
            <feBlend mode="normal" in="SourceGraphic" in2="BackgroundImageFix" result="shape" />
            <feGaussianBlur stdDeviation="8" result="effect1_foregroundBlur_64_727" />
        </filter>
    </defs>
</svg>