<svg width="104" height="104" viewBox="0 0 104 104" fill="none" xmlns="http://www.w3.org/2000/svg">
    <path
        d="M44.0012 6.93168L49.1289 1.67071C51.3001 -0.556904 54.8109 -0.556904 56.959 1.67071L101.861 47.716C104.032 49.9436 104.032 53.5457 101.861 55.7497L56.959 101.819C54.7878 104.046 51.277 104.046 49.1289 101.819L44.0012 96.5577C41.8069 94.3064 41.8531 90.6332 44.0936 88.4293L71.9263 61.2239H5.54346C2.47146 61.2239 0 58.6882 0 55.5364V47.953C0 44.8012 2.47146 42.2655 5.54346 42.2655H71.9263L44.0936 15.0601C41.83 12.8562 41.7838 9.18299 44.0012 6.93168Z"
        fill="white" />
</svg>