<svg width="18" height="17" viewBox="0 0 18 17" fill="none" xmlns="http://www.w3.org/2000/svg">
    <path
        d="M7.65316 15.8613L8.54503 16.7256C8.92266 17.0915 9.53331 17.0915 9.90693 16.7256L17.7168 9.16178C18.0944 8.79586 18.0944 8.20415 17.7168 7.84211L9.90693 0.274445C9.52929 -0.0914816 8.91865 -0.0914816 8.54503 0.274445L7.65316 1.13865C7.27151 1.50847 7.27954 2.11186 7.66923 2.47389L12.5102 6.94287H0.964178C0.429863 6.94287 0 7.3594 0 7.87715V9.12285C0 9.6406 0.429863 10.0571 0.964178 10.0571H12.5102L7.66923 14.5261C7.27553 14.8881 7.26749 15.4915 7.65316 15.8613Z"
        fill="#27256A" />
</svg>