<svg width="180" height="175" viewBox="0 0 180 175" fill="none" xmlns="http://www.w3.org/2000/svg">
    <g filter="url(#filter0_d_135_142)">
        <path
            d="M90.114 9.48267C50.0297 9.48267 18.9653 38.7795 18.9653 78.3505C18.9653 99.0478 27.47 116.934 41.3132 129.289C43.7035 131.439 43.2111 132.684 43.6176 145.959C43.6496 146.889 43.9086 147.796 44.372 148.603C44.8354 149.41 45.4892 150.091 46.2762 150.587C47.0633 151.083 47.9598 151.379 48.8874 151.449C49.8151 151.519 50.7458 151.361 51.5984 150.988C66.7441 144.318 66.9388 143.792 69.5065 144.49C113.386 156.568 160.948 128.485 160.948 78.3505C160.948 38.7795 130.201 9.48267 90.114 9.48267ZM132.835 62.4797L111.938 95.5639C111.149 96.8079 110.111 97.8756 108.89 98.6999C107.669 99.5243 106.291 100.088 104.843 100.354C103.394 100.621 101.906 100.586 100.471 100.251C99.0364 99.9157 97.6866 99.2878 96.506 98.4065L79.8804 85.9624C79.1371 85.4049 78.2331 85.1036 77.3041 85.1036C76.375 85.1036 75.471 85.4049 74.7278 85.9624L52.294 102.978C49.2998 105.248 45.3781 101.661 47.3962 98.4924L68.2928 65.4083C69.0816 64.1639 70.119 63.0959 71.3399 62.2713C72.5609 61.4467 73.939 60.8833 75.3879 60.6164C76.8369 60.3495 78.3253 60.3849 79.7599 60.7203C81.1945 61.0557 82.5443 61.6839 83.7248 62.5656L100.345 75.0069C101.088 75.5643 101.992 75.8657 102.921 75.8657C103.85 75.8657 104.754 75.5643 105.497 75.0069L127.943 58.0082C130.931 55.7238 134.853 59.3079 132.835 62.4797Z"
            fill="#F59E0B" />
    </g>
    <defs>
        <filter id="filter0_d_135_142" x="-0.000104904" y="-5.24521e-05" width="179.913"
            height="179.913" filterUnits="userSpaceOnUse" color-interpolation-filters="sRGB">
            <feFlood flood-opacity="0" result="BackgroundImageFix" />
            <feColorMatrix in="SourceAlpha" type="matrix"
                values="0 0 0 0 0 0 0 0 0 0 0 0 0 0 0 0 0 0 127 0" result="hardAlpha" />
            <feOffset dy="9.48272" />
            <feGaussianBlur stdDeviation="9.48272" />
            <feComposite in2="hardAlpha" operator="out" />
            <feColorMatrix type="matrix"
                values="0 0 0 0 0.365385 0 0 0 0 0.365385 0 0 0 0 0.365385 0 0 0 0.1 0" />
            <feBlend mode="normal" in2="BackgroundImageFix" result="effect1_dropShadow_135_142" />
            <feBlend mode="normal" in="SourceGraphic" in2="effect1_dropShadow_135_142"
                result="shape" />
        </filter>
    </defs>
</svg>