<svg width="342" height="257" viewBox="0 0 342 257" fill="none" xmlns="http://www.w3.org/2000/svg">
    <g filter="url(#filter0_d_135_369)">
        <path
            d="M209.258 63.2266H180.401C177.713 63.2266 175.127 64.2391 173.145 66.0618L140.122 96.4388C140.089 96.4726 140.055 96.5401 140.021 96.5738C134.445 101.839 134.546 110.244 139.316 115.475C143.582 120.167 152.552 121.416 158.162 116.386C158.196 116.353 158.263 116.353 158.296 116.319L185.138 91.6122C187.321 89.6209 190.748 89.7559 192.73 91.9498C194.745 94.1437 194.577 97.5527 192.394 99.5778L183.626 107.645L232.538 147.54C233.512 148.35 234.386 149.227 235.192 150.139V84.828L216.85 66.3993C214.868 64.3741 212.113 63.2266 209.258 63.2266ZM245.976 84.8955V160.467C245.976 166.441 250.78 171.268 256.726 171.268H278.225V84.8955H245.976ZM262.101 160.467C259.144 160.467 256.726 158.037 256.726 155.067C256.726 152.096 259.144 149.666 262.101 149.666C265.057 149.666 267.476 152.096 267.476 155.067C267.476 158.037 265.057 160.467 262.101 160.467ZM63.2266 171.234H84.7265C90.6725 171.234 95.4764 166.407 95.4764 160.433V84.8955H63.2266V171.234ZM79.3515 149.666C82.3077 149.666 84.7265 152.096 84.7265 155.067C84.7265 158.037 82.3077 160.467 79.3515 160.467C76.3952 160.467 73.9765 158.037 73.9765 155.067C73.9765 152.063 76.3952 149.666 79.3515 149.666ZM225.786 155.944L175.631 115.036L165.553 124.318C155.575 133.465 140.29 132.588 131.388 122.833C122.351 112.91 123.057 97.5526 132.866 88.507L160.346 63.2266H132.194C129.339 63.2266 126.618 64.3741 124.602 66.3993L106.226 84.828V160.399H112.374L142.776 188.043C151.981 195.569 165.519 194.152 173.01 184.904L173.078 184.836L179.091 190.068C184.432 194.455 192.327 193.612 196.66 188.245L207.209 175.217L209.023 176.702C213.625 180.448 220.411 179.773 224.14 175.115L227.331 171.166C231.094 166.509 230.388 159.724 225.786 155.944Z"
            fill="#3E3AA6" />
    </g>
    <defs>
        <filter id="filter0_d_135_369" x="-5.72205e-05" y="-5.72205e-05" width="341.452"
            height="256.109" filterUnits="userSpaceOnUse" color-interpolation-filters="sRGB">
            <feFlood flood-opacity="0" result="BackgroundImageFix" />
            <feColorMatrix in="SourceAlpha" type="matrix"
                values="0 0 0 0 0 0 0 0 0 0 0 0 0 0 0 0 0 0 127 0" result="hardAlpha" />
            <feMorphology radius="5.74788" operator="dilate" in="SourceAlpha"
                result="effect1_dropShadow_135_369" />
            <feOffset />
            <feGaussianBlur stdDeviation="28.7394" />
            <feComposite in2="hardAlpha" operator="out" />
            <feColorMatrix type="matrix"
                values="0 0 0 0 0.336538 0 0 0 0 0.336538 0 0 0 0 0.336538 0 0 0 0.1 0" />
            <feBlend mode="normal" in2="BackgroundImageFix" result="effect1_dropShadow_135_369" />
            <feBlend mode="normal" in="SourceGraphic" in2="effect1_dropShadow_135_369"
                result="shape" />
        </filter>
    </defs>
</svg>