<svg width="99" height="74" viewBox="0 0 99 74" fill="none" xmlns="http://www.w3.org/2000/svg">
    <path
        d="M96.2408 24.2949C96.988 23.701 98.0993 24.2566 98.0993 25.1954V64.3777C98.0993 69.4551 93.9799 73.5745 88.9025 73.5745H9.19681C4.1194 73.5745 0 69.4551 0 64.3777V25.2146C0 24.2566 1.09212 23.7201 1.85852 24.3141C6.15037 27.6479 11.8409 31.8823 31.3841 46.0799C35.4269 49.0305 42.2479 55.2384 49.0497 55.2C55.8898 55.2575 62.8449 48.9155 66.7344 46.0799C86.2776 31.8823 91.949 27.6288 96.2408 24.2949ZM49.0497 49.0497C53.4948 49.1263 59.8942 43.4549 63.1131 41.1174C88.5385 22.6663 90.4736 21.0569 96.3366 16.4585C97.4479 15.5963 98.0993 14.2551 98.0993 12.8372V9.19681C98.0993 4.11941 93.9799 0 88.9025 0H9.19681C4.1194 0 0 4.11941 0 9.19681V12.8372C0 14.2551 0.651441 15.5771 1.76272 16.4585C7.62569 21.0377 9.56085 22.6663 34.9862 41.1174C38.2051 43.4549 44.6045 49.1263 49.0497 49.0497Z"
        fill="white" />
</svg>