<svg width="190" height="190" viewBox="0 0 190 190" fill="none" xmlns="http://www.w3.org/2000/svg">
    <g filter="url(#filter0_d_135_134)">
        <path
            d="M93.7927 32.1829C76.6185 32.1829 62.6971 46.1407 62.6971 63.3598C62.6971 77.2805 83.0203 102.653 90.8065 111.862C92.3835 113.728 95.2043 113.728 96.7788 111.862C104.565 102.653 124.888 77.2805 124.888 63.3598C124.888 46.1407 110.967 32.1829 93.7927 32.1829ZM93.7927 73.7521C88.0671 73.7521 83.4275 69.1003 83.4275 63.3598C83.4275 57.6193 88.0671 52.9675 93.7927 52.9675C99.5182 52.9675 104.158 57.6193 104.158 63.3598C104.158 69.1003 99.5182 73.7521 93.7927 73.7521ZM27.6825 85.6166C26.217 86.2043 24.9607 87.2187 24.0756 88.529C23.1906 89.8393 22.7174 91.3854 22.717 92.9679V154.906C22.717 157.707 25.5379 159.622 28.1316 158.583L62.2035 143.034V85.3617C60.0219 81.4077 58.2376 77.5576 56.9592 73.8758L27.6825 85.6166ZM93.7927 121.178C90.3203 121.178 87.0355 119.649 84.7823 116.982C79.9304 111.241 74.7701 104.704 70.1008 97.9983V143.032L117.485 158.867V98.0008C112.815 104.704 107.657 111.244 102.803 116.984C100.55 119.649 97.265 121.178 93.7927 121.178ZM159.454 72.0596L125.382 87.6085V158.87L159.903 145.026C161.369 144.439 162.625 143.424 163.51 142.114C164.395 140.803 164.868 139.257 164.868 137.675V75.7365C164.868 72.9355 162.047 71.0204 159.454 72.0596Z"
            fill="#909FB8" />
    </g>
    <defs>
        <filter id="filter0_d_135_134" x="6.34399" y="23.9963" width="174.897" height="159.433"
            filterUnits="userSpaceOnUse" color-interpolation-filters="sRGB">
            <feFlood flood-opacity="0" result="BackgroundImageFix" />
            <feColorMatrix in="SourceAlpha" type="matrix"
                values="0 0 0 0 0 0 0 0 0 0 0 0 0 0 0 0 0 0 127 0" result="hardAlpha" />
            <feOffset dy="8.18653" />
            <feGaussianBlur stdDeviation="8.18653" />
            <feComposite in2="hardAlpha" operator="out" />
            <feColorMatrix type="matrix"
                values="0 0 0 0 0.360577 0 0 0 0 0.360577 0 0 0 0 0.360577 0 0 0 0.1 0" />
            <feBlend mode="normal" in2="BackgroundImageFix" result="effect1_dropShadow_135_134" />
            <feBlend mode="normal" in="SourceGraphic" in2="effect1_dropShadow_135_134"
                result="shape" />
        </filter>
    </defs>
</svg>