<svg width="175" height="160" viewBox="0 0 175 160" fill="none" xmlns="http://www.w3.org/2000/svg">
    <path
        d="M87.4487 8.18652C70.2745 8.18652 56.3531 22.1444 56.3531 39.3634C56.3531 53.2842 76.6763 78.6562 84.4625 87.8658C86.0395 89.7314 88.8603 89.7314 90.4348 87.8658C98.2211 78.6562 118.544 53.2842 118.544 39.3634C118.544 22.1444 104.623 8.18652 87.4487 8.18652ZM87.4487 49.7557C81.7231 49.7557 77.0835 45.1039 77.0835 39.3634C77.0835 33.6229 81.7231 28.9711 87.4487 28.9711C93.1742 28.9711 97.8139 33.6229 97.8139 39.3634C97.8139 45.1039 93.1742 49.7557 87.4487 49.7557ZM21.3385 61.6203C19.873 62.208 18.6167 63.2224 17.7317 64.5327C16.8466 65.843 16.3734 67.3891 16.373 68.9716V130.91C16.373 133.711 19.1939 135.626 21.7876 134.587L55.8595 119.038V61.3654C53.6779 57.4114 51.8936 53.5613 50.6152 49.8794L21.3385 61.6203ZM87.4487 97.1817C83.9763 97.1817 80.6916 95.6526 78.4384 92.9852C73.5865 87.2447 68.4261 80.7075 63.7568 74.0019V119.035L111.141 134.871V74.0044C106.471 80.7075 101.313 87.2472 96.459 92.9877C94.2058 95.6526 90.921 97.1817 87.4487 97.1817ZM153.11 48.0633L119.038 63.6121V134.874L153.559 121.03C155.025 120.442 156.281 119.428 157.166 118.117C158.051 116.807 158.524 115.261 158.524 113.678V51.7402C158.524 48.9392 155.703 47.024 153.11 48.0633Z"
        fill="#909FB8" />
</svg>