<svg width="28" height="28" viewBox="0 0 28 28" fill="none" xmlns="http://www.w3.org/2000/svg">
<mask id="mask0_685_767" style="mask-type:alpha" maskUnits="userSpaceOnUse" x="2" y="3" width="24" height="21">
<path fill-rule="evenodd" clip-rule="evenodd" d="M2.28027 5.13158C2.28027 4.67792 2.45191 4.24284 2.75742 3.92205C3.06293 3.60127 3.47729 3.42105 3.90935 3.42105H23.4582C23.8903 3.42105 24.3046 3.60127 24.6101 3.92205C24.9157 4.24284 25.0873 4.67792 25.0873 5.13158C25.0873 5.58524 24.9157 6.02032 24.6101 6.3411C24.3046 6.66189 23.8903 6.8421 23.4582 6.8421H3.90935C3.47729 6.8421 3.06293 6.66189 2.75742 6.3411C2.45191 6.02032 2.28027 5.58524 2.28027 5.13158ZM2.28027 13.6842C2.28027 13.2305 2.45191 12.7955 2.75742 12.4747C3.06293 12.1539 3.47729 11.9737 3.90935 11.9737H23.4582C23.8903 11.9737 24.3046 12.1539 24.6101 12.4747C24.9157 12.7955 25.0873 13.2305 25.0873 13.6842C25.0873 14.1379 24.9157 14.5729 24.6101 14.8937C24.3046 15.2145 23.8903 15.3947 23.4582 15.3947H3.90935C3.47729 15.3947 3.06293 15.2145 2.75742 14.8937C2.45191 14.5729 2.28027 14.1379 2.28027 13.6842ZM2.28027 22.2368C2.28027 21.7832 2.45191 21.3481 2.75742 21.0273C3.06293 20.7065 3.47729 20.5263 3.90935 20.5263H23.4582C23.8903 20.5263 24.3046 20.7065 24.6101 21.0273C24.9157 21.3481 25.0873 21.7832 25.0873 22.2368C25.0873 22.6905 24.9157 23.1256 24.6101 23.4464C24.3046 23.7672 23.8903 23.9474 23.4582 23.9474H3.90935C3.47729 23.9474 3.06293 23.7672 2.75742 23.4464C2.45191 23.1256 2.28027 22.6905 2.28027 22.2368Z" fill="#006FFD"/>
</mask>
<g mask="url(#mask0_685_767)">
<rect width="27.3684" height="27.3684" fill="#3E3AA6"/>
</g>
</svg>
