<svg width="129" height="129" viewBox="0 0 129 129" fill="none" xmlns="http://www.w3.org/2000/svg">
    <mask id="mask0_135_393" style="mask-type:alpha" maskUnits="userSpaceOnUse" x="5" y="5"
        width="118" height="118">
        <path
            d="M64.0889 5.34058C96.5308 5.34058 122.829 31.6383 122.829 64.0802C122.829 96.5222 96.5308 122.82 64.0889 122.82C54.5861 122.832 45.2233 120.53 36.8101 116.112L11.6108 122.673C10.7688 122.892 9.88413 122.888 9.04443 122.66C8.20473 122.432 7.43917 121.989 6.82363 121.374C6.20809 120.759 5.76393 119.994 5.53518 119.154C5.30644 118.315 5.30104 117.43 5.51952 116.588L12.0749 91.3942C7.64472 82.9721 5.33608 73.5964 5.34918 64.0802C5.34918 31.6383 31.6469 5.34058 64.0889 5.34058Z"
            fill="#006FFD" />
    </mask>
    <g mask="url(#mask0_135_393)">
        <rect width="128.175" height="128.175" fill="white" />
    </g>
</svg>