<svg width="30" height="26" viewBox="0 0 30 26" fill="none" xmlns="http://www.w3.org/2000/svg">
    <path
        d="M27.1875 0H19.6875C18.1348 0 16.875 1.24777 16.875 2.78571V10.2143C16.875 11.7522 18.1348 13 19.6875 13H24.375V16.7143C24.375 18.7629 22.6934 20.4286 20.625 20.4286H20.1562C19.377 20.4286 18.75 21.0496 18.75 21.8214V24.6071C18.75 25.379 19.377 26 20.1562 26H20.625C25.8047 26 30 21.8446 30 16.7143V2.78571C30 1.24777 28.7402 0 27.1875 0ZM10.3125 0H2.8125C1.25977 0 0 1.24777 0 2.78571V10.2143C0 11.7522 1.25977 13 2.8125 13H7.5V16.7143C7.5 18.7629 5.81836 20.4286 3.75 20.4286H3.28125C2.50195 20.4286 1.875 21.0496 1.875 21.8214V24.6071C1.875 25.379 2.50195 26 3.28125 26H3.75C8.92969 26 13.125 21.8446 13.125 16.7143V2.78571C13.125 1.24777 11.8652 0 10.3125 0Z"
        fill="#C9D3E3" />
</svg>