<svg width="80" height="60" viewBox="0 0 80 60" fill="none" xmlns="http://www.w3.org/2000/svg">
    <path
        d="M72.5 30H60V21.4286C60 16.7009 64.4844 12.8571 70 12.8571H71.25C73.3281 12.8571 75 11.4241 75 9.64286V3.21429C75 1.43304 73.3281 0 71.25 0H70C56.1875 0 45 9.58928 45 21.4286V53.5714C45 57.1205 48.3594 60 52.5 60H72.5C76.6406 60 80 57.1205 80 53.5714V36.4286C80 32.8795 76.6406 30 72.5 30ZM27.5 30H15V21.4286C15 16.7009 19.4844 12.8571 25 12.8571H26.25C28.3281 12.8571 30 11.4241 30 9.64286V3.21429C30 1.43304 28.3281 0 26.25 0H25C11.1875 0 0 9.58928 0 21.4286V53.5714C0 57.1205 3.35938 60 7.5 60H27.5C31.6406 60 35 57.1205 35 53.5714V36.4286C35 32.8795 31.6406 30 27.5 30Z"
        fill="#E4E9F1" />
</svg>