<svg width="129" height="129" viewBox="0 0 129 129" fill="none" xmlns="http://www.w3.org/2000/svg">
    <path
        d="M126.432 110.815L101.471 85.8588C100.344 84.7324 98.8171 84.1066 97.2148 84.1066H93.1339C100.044 75.2704 104.15 64.1563 104.15 52.066C104.15 23.3045 80.8412 0 52.0749 0C23.3085 0 0 23.3045 0 52.066C0 80.8274 23.3085 104.132 52.0749 104.132C64.1673 104.132 75.2832 100.027 84.1209 93.118V97.1982C84.1209 98.8002 84.7468 100.327 85.8735 101.454L110.834 126.41C113.188 128.763 116.993 128.763 119.322 126.41L126.407 119.326C128.76 116.973 128.76 113.168 126.432 110.815ZM52.0749 84.1066C34.3744 84.1066 20.0288 69.7884 20.0288 52.066C20.0288 34.3685 34.3494 20.0254 52.0749 20.0254C69.7753 20.0254 84.1209 34.3435 84.1209 52.066C84.1209 69.7634 69.8003 84.1066 52.0749 84.1066Z"
        fill="white" />
</svg>