<svg width="20" height="19" viewBox="0 0 20 19" fill="none" xmlns="http://www.w3.org/2000/svg">
<path d="M11.4965 1.27261L10.5055 0.306732C10.0859 -0.102244 9.40743 -0.102244 8.9923 0.306732L0.314695 8.76036C-0.1049 9.16934 -0.1049 9.83066 0.314695 10.2353L8.9923 18.6933C9.41189 19.1022 10.0904 19.1022 10.5055 18.6933L11.4965 17.7274C11.9205 17.3141 11.9116 16.6397 11.4786 16.2351L6.09976 11.2403H18.9287C19.5224 11.2403 20 10.7748 20 10.1961V8.80387C20 8.22521 19.5224 7.75968 18.9287 7.75968H6.09976L11.4786 2.76494C11.9161 2.36032 11.925 1.68594 11.4965 1.27261Z" fill="white"/>
</svg>
