<svg width="22" height="21" viewBox="0 0 22 21" fill="none" xmlns="http://www.w3.org/2000/svg">
    <path
        d="M20.372 6.87045L14.5086 6.0168L11.8884 0.713444C11.6528 0.23955 11.1934 0 10.7339 0C10.2772 0 9.82094 0.236346 9.5846 0.713444L6.96356 6.0164L1.09979 6.86925C0.0482487 7.02147 -0.373168 8.31496 0.389147 9.05605L4.63095 13.1821L3.62708 19.0098C3.48447 19.8422 4.14905 20.51 4.89334 20.51C5.09082 20.51 5.29392 20.4631 5.48901 20.3598L10.7347 17.6086L15.98 20.3606C16.1746 20.4627 16.3773 20.5092 16.574 20.5092C17.3191 20.5092 17.9849 19.8438 17.8423 19.011L16.8396 13.1829L21.0822 9.05765C21.8449 8.31656 21.4235 7.02267 20.372 6.87045ZM15.4952 11.8057L14.7694 12.5115L14.9408 13.5082L15.7228 18.0528L11.6316 15.9061L10.7351 15.4358L10.7363 2.72959L12.7805 6.86724L13.2283 7.77377L14.2302 7.91958L18.8061 8.58576L15.4952 11.8057Z"
        fill="#F59E0B" />
</svg>