<svg width="56" height="56" viewBox="0 0 56 56" fill="none" xmlns="http://www.w3.org/2000/svg">
    <mask id="mask0_271_1327" style="mask-type:alpha" maskUnits="userSpaceOnUse" x="0" y="4"
        width="56" height="48">
        <path
            d="M9.28221 4.64111C6.82042 4.64111 4.45945 5.61906 2.7187 7.35981C0.977944 9.10056 0 11.4615 0 13.9233V14.8562L27.8466 29.8516L55.6933 14.8608V13.9233C55.6933 11.4615 54.7153 9.10056 52.9746 7.35981C51.2338 5.61906 48.8728 4.64111 46.4111 4.64111H9.28221ZM55.6933 20.1285L28.9466 34.5298C28.6085 34.7118 28.2306 34.8071 27.8466 34.8071C27.4627 34.8071 27.0848 34.7118 26.7467 34.5298L0 20.1285V41.77C0 44.2318 0.977944 46.5927 2.7187 48.3335C4.45945 50.0742 6.82042 51.0522 9.28221 51.0522H46.4111C48.8728 51.0522 51.2338 50.0742 52.9746 48.3335C54.7153 46.5927 55.6933 44.2318 55.6933 41.77V20.1285Z"
            fill="#006FFD" />
    </mask>
    <g mask="url(#mask0_271_1327)">
        <rect y="-0.0012207" width="55.6933" height="55.6933" fill="#3E3AA6" />
    </g>
</svg>