<svg width="59" height="59" viewBox="0 0 59 59" fill="none" xmlns="http://www.w3.org/2000/svg">
    <path
        d="M58.1806 29.0903C58.1806 45.1565 45.1565 58.1806 29.0903 58.1806C13.0241 58.1806 0 45.1565 0 29.0903C0 13.0241 13.0241 0 29.0903 0C45.1565 0 58.1806 13.0241 58.1806 29.0903ZM25.7255 44.4934L47.3086 22.9103C48.0415 22.1774 48.0415 20.989 47.3086 20.2561L44.6545 17.602C43.9216 16.869 42.7332 16.869 42.0002 17.602L24.3983 35.2038L16.1804 26.9859C15.4475 26.253 14.2592 26.253 13.5262 26.9859L10.872 29.64C10.1392 30.3729 10.1392 31.5612 10.872 32.2941L23.0712 44.4933C23.8042 45.2263 24.9925 45.2263 25.7255 44.4934Z"
        fill="#298267" />
</svg>