<svg width="59" height="59" viewBox="0 0 59 59" fill="none" xmlns="http://www.w3.org/2000/svg">
    <mask id="mask0_271_1319" style="mask-type:alpha" maskUnits="userSpaceOnUse" x="2" y="2"
        width="54" height="54">
        <circle cx="29.0882" cy="29.0882" r="26.6641" fill="#D9D9D9" />
    </mask>
    <g mask="url(#mask0_271_1319)">
        <rect width="58.1763" height="58.1763" fill="#ED3241" />
    </g>
    <path
        d="M27.7491 14.6895C28.1716 14.5035 28.6282 14.4076 29.0899 14.408C29.5512 14.4081 30.0074 14.5043 30.4295 14.6906C30.8515 14.8769 31.2301 15.1491 31.5411 15.4898C31.8521 15.8306 32.0886 16.2324 32.2356 16.6696C32.3827 17.1069 32.4369 17.57 32.395 18.0294L31.0715 32.5953C31.02 33.085 30.7891 33.5383 30.4231 33.8678C30.0572 34.1973 29.5823 34.3796 29.0899 34.3796C28.5974 34.3796 28.1225 34.1973 27.7566 33.8678C27.3906 33.5383 27.1597 33.085 27.1082 32.5953L25.7811 18.0294C25.7391 17.5697 25.7935 17.1063 25.9407 16.6688C26.088 16.2313 26.3248 15.8293 26.6362 15.4885C26.9476 15.1477 27.3266 14.8755 27.7491 14.6895Z"
        fill="white" />
    <path
        d="M32.2618 40.5964C32.2618 42.3481 30.8417 43.7682 29.09 43.7682C27.3383 43.7682 25.9182 42.3481 25.9182 40.5964C25.9182 38.8447 27.3383 37.4246 29.09 37.4246C30.8417 37.4246 32.2618 38.8447 32.2618 40.5964Z"
        fill="white" />
</svg>