<svg width="112" height="99" viewBox="0 0 112 99" fill="none" xmlns="http://www.w3.org/2000/svg">
    <path
        d="M109.797 40.0337L99.9125 30.1146C98.6018 28.7993 96.8237 28.0606 94.9691 28.0606H83.883V10.5219C83.883 4.71075 79.1886 0 73.3976 0H38.4464C32.6554 0 27.961 4.71075 27.961 10.5219V28.0584H16.8749C15.0203 28.0584 13.2443 28.7971 11.9315 30.1124L2.04683 40.0337C0.736161 41.3489 0 43.1333 0 44.9943V63.1315H27.961V59.6242C27.961 57.6864 29.5251 56.1169 31.4561 56.1169H38.4464C40.3774 56.1169 41.9415 57.6864 41.9415 59.6242V63.1315H69.9025V59.6242C69.9025 57.6864 71.4666 56.1169 73.3976 56.1169H80.3879C82.3189 56.1169 83.883 57.6864 83.883 59.6242V63.1315H111.844V44.9921C111.844 43.1333 111.108 41.3489 109.797 40.0337ZM69.9025 28.0584H41.9415V14.0292H69.9025V28.0584ZM83.883 73.6534C83.883 75.5912 82.3189 77.1607 80.3879 77.1607H73.3976C71.4666 77.1607 69.9025 75.5912 69.9025 73.6534V70.1461H41.9415V73.6534C41.9415 75.5912 40.3774 77.1607 38.4464 77.1607H31.4561C29.5251 77.1607 27.961 75.5912 27.961 73.6534V70.1461H0V91.1899C0 95.0633 3.13032 98.2045 6.99025 98.2045H104.854C108.714 98.2045 111.844 95.0633 111.844 91.1899V70.1461H83.883V73.6534Z"
        fill="white" />
</svg>