<svg width="163" height="163" viewBox="0 0 163 163" fill="none" xmlns="http://www.w3.org/2000/svg">
    <path
        d="M158.736 125.335L121.645 88.2446C114.328 80.9278 103.401 79.5025 94.5953 83.8419L60.8305 50.0771V30.4073L20.2874 0L0.0158369 20.2716L30.4232 60.8147H50.0929L83.8577 94.5795C79.55 103.385 80.9437 114.313 88.2604 121.629L125.351 158.72C129.975 163.344 137.451 163.344 142.043 158.72L158.736 142.028C163.329 137.403 163.329 129.928 158.736 125.335ZM105.079 71.2672C114.043 71.2672 122.469 74.7514 128.804 81.0862L134.948 87.231C139.953 85.0455 144.704 82.0048 148.822 77.8871C160.573 66.1359 164.564 49.602 160.826 34.5883C160.129 31.7376 156.55 30.7557 154.46 32.8462L130.894 56.4119L109.387 52.8327L105.808 31.3259L129.374 7.7602C131.464 5.6697 130.451 2.0905 127.568 1.362C112.555 -2.3439 96.0206 1.64706 84.3012 13.3666C75.274 22.3937 71.0296 34.3033 71.2513 46.1811L97.2559 72.1857C99.8216 71.5839 102.482 71.2672 105.079 71.2672ZM72.1699 97.2401L54.2106 79.2808L5.93893 127.584C-1.97964 135.503 -1.97964 148.331 5.93893 156.249C13.8575 164.168 26.6856 164.168 34.6042 156.249L73.7536 117.1C71.3464 110.797 70.6179 103.923 72.1699 97.2401ZM20.2874 149.503C16.1064 149.503 12.6856 146.082 12.6856 141.901C12.6856 137.688 16.0747 134.299 20.2874 134.299C24.5001 134.299 27.8892 137.688 27.8892 141.901C27.8892 146.082 24.5001 149.503 20.2874 149.503Z"
        fill="white" />
</svg>