<svg width="163" height="163" viewBox="0 0 163 163" fill="none" xmlns="http://www.w3.org/2000/svg">
    <path
        d="M81.0924 91.229C106.275 91.229 126.707 70.7975 126.707 45.6145C126.707 20.4315 106.275 0 81.0924 0C55.9094 0 35.4779 20.4315 35.4779 45.6145C35.4779 70.7975 55.9094 91.229 81.0924 91.229ZM121.639 101.366H104.185C97.1525 104.597 89.3284 106.434 81.0924 106.434C72.8565 106.434 65.064 104.597 58.0001 101.366H40.5462C18.1508 101.366 0 119.516 0 141.912V146.98C0 155.374 6.8105 162.185 15.2048 162.185H146.98C155.374 162.185 162.185 155.374 162.185 146.98V141.912C162.185 119.516 144.034 101.366 121.639 101.366Z"
        fill="white" />
</svg>